<?xml version="1.0" encoding="utf-8"?>
<svg version="1.1" id="Layer_1" xmlns="http://www.w3.org/2000/svg" xmlns:xlink="http://www.w3.org/1999/xlink" x="0px" y="0px"
	 viewBox="0 0 120 120" style="enable-background:new 0 0 120 120; fill:#fee700;" xml:space="preserve">
<path d="M58.2,4c0.4-0.9,1.1-1.3,2.3-1.2c7.6,0.5,14.7,4.5,19.7,7.7C73.9,7.4,66.9,2.4,58.2,4z M63.3,28.9c-0.1-0.9-1.2-0.4-1.9-0.3
	c-0.5-0.4-1-1.2-1.7-0.5c-0.3-0.1-0.2-0.6-0.8-0.5c-0.1,0.5,0.1,0.7,0.3,0.9c0.4,0,1.1,0.1,1.3-0.1c0.1,0.9,1.7,0.7,2.3,0.4
	c0,0.2,0,0.4,0.1,0.5c0.8,0.1,1.3-0.2,1.6-0.7C64.1,28.2,63.6,28.8,63.3,28.9z M68.7,29.8c0.5-0.4,1.4-0.4,1.5-1.2
	c-0.8,0-0.9,0.6-1.6,0.7c-0.5-0.5-1.5-0.4-2,0c-0.7-0.1-1.1-0.5-1.7-0.7C65.1,30.6,67.5,29.2,68.7,29.8z M37.8,54.1
	c0,0.2,0.1,0.3,0.1,0.4c0.5,1.1,1.3,2.2,2.1,3c1.4,1.5,2.9,3.1,4.8,4.2c0.2-0.5-0.3-1-0.5-1.5c-0.1,0.5,0.6,0.8,0.1,1.1
	c-2.1-2.4-4.7-4.3-6.2-7.3C38.1,54.1,38,54.1,37.8,54.1z M47.9,61.4c-0.3-0.7-0.9-0.3-1.5-0.5c-1.6-0.7-2.5-2.5-3.6-3.8
	c-0.2,0-0.2-0.2-0.4-0.1C43.5,59.1,45.1,60.9,47.9,61.4z M58.9,67.3c0-0.2,0-0.4,0-0.5C58.4,66.7,58.4,67.4,58.9,67.3z M78.7,69.6
	c-0.3-0.1-0.7,0.4-0.8,0.1c0.6-0.8,1.9-1.1,2.3-2.1c-0.4,0-0.9-0.1-0.9,0.3c0.3,0.2,0.5-0.3,0.5,0c-0.8,0.9-2.4,1.1-2.7,2.5
	C77.7,70.2,78.4,70.1,78.7,69.6z M68.9,100.8c-0.2,0-0.3,0-0.5,0C68.6,100.9,68.8,100.9,68.9,100.8z M95.2,42.1
	c-0.4,2.3-1.5,4.4-2.4,6.5C91,53,88.5,56.1,85.9,60c-2.2,3.4-3.7,6.8-4.1,11.9c-0.3,3.4,0.1,7-1.1,9.5c-0.5,1.1-1.3,1.7-2.1,3
	c0.1,1-0.2,1.9-0.4,2.9c-0.2,0.9-0.1,2.1-0.4,2.9c-0.2,0.7-0.9,1.1-0.9,1.7c0,0.9,0.8,1.2,1.1,2c-0.1,1.6-1.1,2.3-1.2,3.8
	c0.2,0.6,0.7,0.9,0.9,1.5c-0.4,1.1-1.6,2-1.2,3.4c0.2,1,1.3,0.8,1.5,1.9c-0.2,0.8-1.3,1.3-1.5,2.3c-0.1,1,0.9,1.8,0.9,2.7
	c0.1,2.5-3,2.7-5.4,3.6c-0.9,1.9-1.9,3.7-4.5,4c-0.3,3.6-8.4,3.8-9.3,0.5c2.3,1.3,5.4,0.4,7.8-0.3c-5.5,0-12.5,0.3-13.5-4.6
	c-1.5-0.6-3.7-1.1-5-2.4c-0.6-0.6-1.4-2-1.3-2.8c0.1-1,1-0.8,0.8-2.3c-0.1-0.9-1.4-1.7-1.3-2.5c0.1-0.7,0.7-0.9,1.2-1.3
	c-0.3-0.7,0.1-1-0.1-1.6c-0.4-1-1.5-1.3-1.5-2.1c0-0.7,0.8-1.1,1.7-1.3c-0.1-1.3-1.6-1.7-1.6-2.8c0-1,1.1-1.2,1.2-1.9
	c0.3-1.5-2.8-3.2-2-6.1c-1.7-2-3.4-4-4-7.4c-0.4-2.8-0.7-5.8-1.3-8.7c-0.7-2.8-1.1-5.8-2.4-8c-0.7-1.3-1.9-2.3-2.8-3.4
	c-0.9-1.2-5.4-7.5-7.3-11.3c-0.3-0.6-1.2-3-1.3-3.6c-2-6.6-1.4-15.2,1.2-21.7c0.5-1.4,1.6-2.9,2.4-4.2C34.7,8.1,43.8,1.2,57.3,0.1
	c10.7-0.9,18.1,2.3,24.4,7c4.3,3.2,7.8,7.8,10.2,12.5c0.4,0.8,2.2,4.8,2.7,6.6C95.7,31.3,96.1,36.8,95.2,42.1z M47,103.8
	c-0.5-0.1-0.2-0.9-0.8-0.9C46.3,103.2,46.6,104.1,47,103.8z M64.3,1.1c1.9,0.2,3.2,0.7,4.5,0.7C67.5,1.4,65.8,0.8,64.3,1.1z
	 M26.3,34.3c-0.1,1.4,0,2.8,0.4,4C27,37.1,27,35.1,26.3,34.3z M29.9,48.2c-0.7-2.4-2-4.9-2.5-7.3c0.8,3.1,1.1,5.6,2.4,7.6
	C30.3,49.3,29.7,47.8,29.9,48.2z M31.1,51.2c-0.5-0.6-0.5-1.6-1.1-2.1C30.1,49.9,30.6,51.1,31.1,51.2z M34.5,55.3
	c-0.5-0.1-0.9-1.6-0.9-1.3C33.7,54.5,34,55.6,34.5,55.3z M36,60c-0.2-0.5-0.5-1-0.9-1.3C35.1,59.2,35.9,59.9,36,60z M40.6,73.4
	c-0.4-3.5-0.4-7.3-2.1-9.4C39.4,67,39.9,70.3,40.6,73.4z M48.2,89.3c-0.8-0.3-1.5-1.4-2.3-1.3C46.5,88.5,47.5,89.3,48.2,89.3z
	 M45.9,86.7c0.3,0.6,1.1,1.5,1.7,1.5C47.1,87.6,46.7,86.9,45.9,86.7z M47.8,87.1c0-0.4-0.8-0.8-1.1-0.5C47.2,86.6,47.4,87,47.8,87.1
	z M50.2,92.9c-0.8-0.3-1.5-1.8-2.3-1.3C48.7,91.9,49.4,93,50.2,92.9z M47.2,91.7c0.1,0.8,1.2,1.3,1.7,1.2
	C48.4,92.5,47.8,92.1,47.2,91.7z M47.1,107.2c-0.1,0.3-0.4,0.2-0.3,0.7C47.3,107.9,47.6,107.3,47.1,107.2z M49.6,105.1
	c0.5,0.2,1.2,0.1,1.9,0.3c0.3,0.1,0.5,0.4,0.8,0.5c3.8,1,10.8,2,13.9,0.9c1.3-0.5,2.6-0.4,3.6-1.1c-1.6,0.2-4.1,0.5-6,0.1
	c1.3,0.1,2.1-0.2,3.3-0.1c0.4-0.5,0.6-1.1,0.9-1.6c-0.9,0.2-1.3,1.5-2.3,1.2c0-0.5,0.6-1.2,0.4-1.5c-0.5,0.5-1.2,1.3-1.9,1.1
	c-0.1-0.9,0.8-1,0.8-1.9c-2.9,0-5.9,0.2-8.5-0.3c-2.7-0.5-5-1.4-7.3-1.6c0.3,0.4,0.8,0.6,1.2,0.9c0.1,0.4-0.5,0.1-0.5,0.4
	c0.3,0.1,0.4,0.5,0.4,0.9c2.9,1.3,6.7,1.7,10.2,2.4c-4.1-0.5-10.8-0.6-13.3-4C46.7,103.4,48.5,104.6,49.6,105.1z M52.4,100.9
	c-1.1-0.6-2.7-1.4-4-1.5C49.5,100.2,51,100.4,52.4,100.9z M47.8,100.5c0.3,1,1.2,1.9,2,1.6C48.9,101.7,48.7,100.7,47.8,100.5z
	 M49.1,97.4c-0.5-0.1-0.8-1.1-1.3-0.8C48.1,96.9,48.6,97.7,49.1,97.4z M47.5,97.4c-0.1,0.3-0.3,0.3-0.3,0.7c0.5,0,0.7,0.3,1.3,0.4
	C48.3,98,47.9,97.7,47.5,97.4z M71.8,107.7c-1.2,0.4-2,1.8-2.4,2.5C70.3,109.6,71.2,108.8,71.8,107.7z M70,110.3
	c0,0.3-0.5,0.2-0.5,0.5c0.3,0,0.5,0,0.7-0.1C70.2,110.5,70.2,110.3,70,110.3z M70.2,107.9c-1.3,0.2-1.7,1.3-2.4,2.1
	C68.8,109.5,69.8,109,70.2,107.9z M68.3,110.3c-0.2,0.5-0.9,0.4-1.2,0.8c0.4,0,0.7,0,1.1,0C68.2,110.8,68.9,110.2,68.3,110.3z
	 M66.2,109.7c0.8-0.4,1.8-0.6,2-1.6C67.1,108.3,66.7,109.1,66.2,109.7z M66.5,108.3c-1.1-0.2-1.9,0.6-1.9,1.2
	C65.2,109,66,108.8,66.5,108.3z M72.8,104c-0.3,0.4-0.7,0.7-1.3,0.8c0-0.1,0-0.3,0-0.4c-0.5,0.1-0.8,0.4-1.1,0.8
	C71.4,105,72.9,104.8,72.8,104z M72.4,102.3c-1,0.4-2,1.5-2.1,2.4C71,104.1,72.7,103,72.4,102.3z M70.4,102.7
	c-0.7,0.3-1.6,1.3-2.1,2.3C69.4,104.7,70.3,103.5,70.4,102.7z M68.7,103c-1-0.2-1.7,0.7-1.7,1.3C67.5,103.8,68.4,103.7,68.7,103z
	 M49.5,107.1c0.1,0.4,0.4,1.2,0.8,0.8C49.8,107.8,49.8,107.3,49.5,107.1z M50,106.8c-0.3-0.4-0.4-0.9-0.9-1.1
	C48.9,106,49.8,107,50,106.8z M55.7,114.6c-0.2-0.5-0.4-1-0.9-1.2C54.9,114,55.2,114.5,55.7,114.6z M62.2,115.8
	c-1.2,0-1.9-0.2-3.2-0.5c0.7-0.2,1.4,0.4,1.6-0.1c-0.5-0.2-1.3-0.1-1.6-0.5c0.6,0.2,1.8,0.4,2.3,0.3c-0.3-0.7-1.6-0.8-2.5-0.9
	c-0.9-0.2-2-0.1-2.9-0.4C56.6,115.5,60.4,116.6,62.2,115.8z M73.4,110.5c-2.8,0.7-6.6,1.7-9.8,0.8c1.2,0.1,2.3-0.1,3.4-0.1
	c-0.1-0.6,0.1-0.9,0.1-1.3c-0.9,0.1-1.3,1.3-2.3,0.9c0.2-0.5,0.4-1,0.7-1.3c-0.8,0.1-1.2,1.3-2.1,0.8c-0.1-0.8,1.3-1.5,0.8-1.9
	c-4.5,0.5-8.4-0.9-11.7-1.3c0.5,0.5,1.6,1.1,1.6,1.6c-1.1-0.6-1.8-1.6-2.9-2.1c0.9,3.5,5.1,3.8,8.6,4.6c-2.1-0.2-3.9-0.6-5.7-1.1
	c0,0.3,0.2,0.3,0.3,0.4c-2.5-0.5-4.5-1.5-6.5-2.5c-0.3,1.8,2.6,2.8,4,3.3c2.1,0.8,5.9,1.4,8.2,1.6C65.4,113.4,71,113.1,73.4,110.5z
	 M52.5,109.3c-0.5-0.9-1.2-1.6-2-2.3C51,108,51.5,108.9,52.5,109.3z M74.9,106.7c-1.3,0.6-2.3,1.7-2.8,3.2
	C73.8,109.6,75.3,108.5,74.9,106.7z M75.7,101.1c-1.2,0.6-2.5,1-2.9,2.3c0.8-0.1,1.2-1.4,2-1.2c-0.2,1-1.4,1.7-1.5,2.4
	c0.6-0.5,1.6-0.6,2.1-1.1C75.3,102.6,76,101.7,75.7,101.1z M74.1,105.8c0.8-0.2,1.9-0.2,1.9-1.2C75.3,104.9,74.3,104.9,74.1,105.8z
	 M75.1,109.9c-0.6,0-1,0.8-0.7,1.2C74.6,110.6,74.9,110.3,75.1,109.9z M76,109.6c-0.4-0.1-0.6,0.7-0.4,0.7
	C75.7,110,76.1,110.1,76,109.6z M76.1,99.1c-2.2,0.9-4.4,1.7-7.2,1.7c0.4-0.2,0.5-0.6,0.4-0.8c-0.4,0.4-0.8,0.8-1.5,0.9
	c-0.3-0.2,0-0.5,0-0.8c-0.6,0.1-0.9,1-1.7,0.5c0-0.5,0.8-1,0.5-1.3c-0.5,0.7-1.2,1.1-2.1,1.3c0-0.2,0-0.4,0-0.7
	c-0.5,0-1,0.7-1.3,0.4c-0.1-0.8,0.6-0.8,0.7-1.5c-3.9,0-10-0.3-13.6-1.3c0.5,0.3-0.2,0.5-0.1,0.8c3.5,2.6,9.6,2.5,13.4,2.9
	c-3.6,0.1-6.6-0.3-9.1-0.5c3.6,1.4,8.4,1.5,13,1.2c2.1-0.2,4.5-1,6.1-1.2C75,100.7,76.4,100.9,76.1,99.1z M52.4,96.7
	c-0.8-0.1-1.4-0.2-1.7,0.4c0.3,0.6,1.4,0.4,2.1,0.7C52.7,97.4,52.5,97.1,52.4,96.7z M53.1,97.3c1.2,0.5,2.9,0.6,4.6,0.5
	c0.6,0-0.1-0.2-0.4-0.1c-1.5,0.1-3.1-0.5-4.6-0.8C52.7,97.2,52.8,97.3,53.1,97.3z M66.6,99.1c-0.6-0.1-0.7,0.2-0.9,0.5
	C66.1,99.6,66.5,99.5,66.6,99.1z M67.5,99.9c0.2-0.3,0.7-0.3,0.8-0.8C67.7,98.9,67.2,99.6,67.5,99.9z M70.2,98.9
	c-0.8,0-1,0.5-1.3,0.9C69.4,99.6,69.9,99.3,70.2,98.9z M71.8,98.6c-0.9,0-1,0.8-1.5,1.3C70.9,99.6,71.6,99.4,71.8,98.6z M73.7,98.2
	c-1.2-0.2-1.6,1-1.6,1.6c1.3-0.5,1.7-1.9,2.7-2.8c0,0.3,0.4,0.2,0.3,0.5c-0.4,0.6-1,1-1.2,1.9c0.7,0,1.2-0.4,1.7-0.7
	c0.1-0.7-0.3-1.1,0-1.6c-0.2,0-0.5,0-0.5-0.1c-0.1-0.4,0.7-0.5,0.3-0.8c-0.4,0.4-0.6,1-1.5,0.9c-0.1,0.5,0.4-0.1,0.4,0.4
	C73.7,97.7,73.4,97.8,73.7,98.2z M76.8,94c-0.9-0.4-1.9,0.3-2.9,0.5c-1,0.3-2.2,0.6-3.4,0.8c-2.6,0.4-5.4,0.3-8.2,0.4
	c-2.5,0.1-5.8,0.6-7.6-1.1c3.6,1,8.5,0.4,12.1-0.1c-0.1-0.6,0.3-0.6,0.4-1.1c-0.6,0.1-0.9,0.6-1.6,0.7c-0.1-0.7-0.7,0-1.1-0.3
	c-0.2-0.4,0.6-0.6,0-0.7c-5,0.8-10.1-0.5-14.3-0.8c0.4,0.5,0.9,0.4,1.3,0.5c0.1,0.8-0.6,0.1-0.5,0.9c0.4,0.5,1.5,0.3,1.7,0.7
	c-2.1,0.1-4.1-0.5-5.7-0.7c0.7,0.8,2,1.3,3.2,1.6c4.5,1.1,9.4,1.6,14,1.3c3.1-0.2,6.6-0.5,9.8-1.2C75.1,95.3,76.8,95.2,76.8,94z
	 M69.4,92.9c-0.9-0.1-1.4,0.2-1.6,0.8C68.4,93.5,69,93.3,69.4,92.9z M72.7,92.5c-0.8,0-0.9,0.7-1.3,1.1C72.2,93.6,72.3,93,72.7,92.5
	z M76,91.7c-0.6,0.4-1.4,0.5-1.7,1.2C75.1,92.8,76.4,92.5,76,91.7z M77.1,87.6c-1.2,0.7-1.9,1.9-2.9,2.8c-0.3,0-0.1-0.5-0.4-0.5
	c-0.4,0.4-1.1,0.5-1.2-0.1c-0.6,0.3-0.9,1-1.9,0.9c-0.1-0.5,0.2-0.6,0.3-0.9c-0.8,0.2-1.1,1-2,1.1c-0.2-0.7,0.6-1,0.3-1.3
	c-0.6,0.5-1.4,1.4-2.3,1.2c0-0.6,0.9-0.9,0.7-1.3c-0.7,0.5-1.4,1.7-2.4,1.5c-0.1-1.1,1.7-1.6,1.2-2.4c-0.7,0.8-1.5,2.1-2.7,2
	c-0.1-0.8,1.2-1,0.9-1.6C59,89,53,88.1,48.7,87.1c0.2,0.7-0.5,0.8-1.1,0.8c1,0.5,1.4,1.1,1.3,2.4c5.3,1.5,17.3,2.7,23.7,0.9
	C75,90.6,77.7,90.2,77.1,87.6z M52.1,85.3c-0.3-0.2-0.4-0.5-1.1-0.4c0,0.3-0.1,0.3-0.1,0.5c1,0.1,2,0.2,2.9,0.4
	c0.1-0.2,0.2-1.4-0.3-1.5c0,0.4-0.4,0.5-0.5,0.8C52.9,84.7,52.5,85.3,52.1,85.3z M53.7,83c-0.4,0-0.6,0.4-0.8,0.7
	C53.3,83.5,53.8,83.5,53.7,83z M55.1,81.4c-0.3,1.3-0.7,3.1-0.5,4.5c3.3,0.2,7.8,1,10.9,0c0.2-4.8,0.2-10.7-0.3-15.6
	c-0.4-0.3-1.1-0.8-1.5-0.7c-1.6,1.2-1.3,2.9-1.2,5c0.2,3.6,0,6.7-0.1,9.5c-0.2,0.1-0.6,0.1-0.7,0.3c0.5-0.1,0.8,0.1,0.8,0.7
	c-0.7,0.3-2.1,0.6-2.5,0.4c0.3-0.5,1.3-0.2,1.6-0.7c-0.7-0.4-1.6-0.1-2.6-0.5c0.3-1.1-0.5-1.2-0.4-2.3c0.8-0.8,0.7-3.9,0.3-5.6
	c-0.4,2.5,0,6-0.9,7.6c-0.4-3.8-0.5-9.8-0.5-14c-0.4,0-0.6-0.4-1.2-0.3C54.2,72.1,55,77.6,55.1,81.4z M55.2,65.5
	c-0.4,0.3,0,0.9,0,1.3c1.2,0.7,3.6,1.1,4.8,0.9c-0.4-0.6,0.3-1.1,0.4-1.6c-2-0.2-4.3,0.6-4.9-0.9c1.6,0.3,4.8,0.4,7,0.1
	c1.3-1.3,3.3-1.9,2.9-4.8c-0.2-0.2-0.5-0.4-0.7-0.7c-0.4,1.2-2.1,1-2.5,2.3c0.2,0.4,0.9,0.8,0.5,1.3c-0.9-0.3-1.1-1.3-1.7-2
	c-1.3-0.4-2,0.7-2.5,1.7c0.1,0.7,0.1,1.7-0.5,2c-1.4,0.2-1.9-1-2.8-0.9c-0.4-0.7-0.3-1.8-0.8-2.4C53.7,63.2,54.2,64.8,55.2,65.5z
	 M56.3,59.8c-0.1,0-0.3,0-0.4,0c-0.6,1.3-0.9,3.6,0.5,4.4c0.2-0.8,0.7-1.4,0.9-2.1C56.7,62.2,56.8,63,56,63c-0.1-0.7,0.2-1,0.5-1.3
	C56,61.1,56.5,60.4,56.3,59.8z M63.4,59.6c-0.1,1-1.3,1-1.5,1.9c1-0.3,1.6-1,2.5-1.3c-0.2-0.6-0.9-0.8-1.5-1.1
	c-0.2,0.4-1.2,0.8-1.1,1.2C62.5,60.1,62.9,59.4,63.4,59.6z M62.4,58.7c-0.7,0.5-1.8,1.3-1.7,2.1C61.1,60,62.4,59.5,62.4,58.7z
	 M61.7,58.4c-0.3,0.1-0.3-0.2-0.7-0.1c-0.4,1.5-2.4,1.9-2.1,3.3C59.7,60.4,60.8,59.5,61.7,58.4z M60.6,58.2c-1.8,0.3-2.5,1.9-3.4,3
	C58.5,60.4,59.6,59.3,60.6,58.2z M57.3,64.4c0.3-0.1,0.3,0.2,0.7,0.1C58.1,63.8,57.4,64,57.3,64.4z M67.4,85.7c0.2,0,0.4,0,0.5,0
	c-0.1-0.2,0.3-1.2-0.3-1.5C67.6,84.8,67.3,85.1,67.4,85.7z M67.5,81.9c0.2-0.8,0.2-2.4,0-3.2C67.4,79.8,67.5,81.5,67.5,81.9z
	 M66.9,89.5c0.6-0.4,1.3-0.7,1.7-1.2c-0.3,0.1-0.6,0.2-1.1,0.1C67.5,88.8,66.7,89.3,66.9,89.5z M68.6,85.6c0.4-0.3-0.1-0.9-0.3-1.1
	C68.4,84.9,68.1,85.7,68.6,85.6z M73.2,85.7c1-0.3,2.2-0.4,2.9-1.1C75.1,84.9,73.6,85.3,73.2,85.7z M74.5,84c-0.3,0-0.4-0.1-0.4-0.4
	c-0.4,0-0.7,0-0.7,0.4C73.9,83.9,74.3,84.4,74.5,84z M71.9,89.6c1.5-0.7,2.9-2.2,3.6-3.3C74.1,87.2,72.8,88.2,71.9,89.6z M72.7,87.3
	c-1.3,0.3-2.1,1.2-2.7,2.3c0.7-0.1,1.1-0.6,1.7-0.8C71.7,88,73.3,87.7,72.7,87.3z M70.6,88c-1,0-1.8,1-1.9,1.5
	C69.3,88.9,70.2,88.7,70.6,88z M71.8,85.2c-0.4-0.5-1.8-0.9-2.8-0.7c0.2,0.2,0.3,0.6,0.3,1.1C70.2,85.6,70.8,85.2,71.8,85.2z
	 M69.2,83.9c0-0.4-0.4-0.4-0.8-0.4C68.4,83.9,69,83.7,69.2,83.9z M66.7,83.2c-0.1,1-0.4,1.8-0.7,2.5c0.4,0.1,0.3,0,0.8,0
	C66.8,84.9,67,83.8,66.7,83.2z M65.9,70c0.4,5.3-0.1,9.1-0.3,14.4C66,80.4,67.2,74.1,65.9,70z M65.7,67.7c-0.4-0.1-0.3,0.2-0.7,0.1
	C64.9,68.4,65.9,68.1,65.7,67.7z M64.9,68.6c0,0.2-0.1,0.3-0.1,0.4c0.2,0.2,0.5,0.2,0.7,0C65.4,68.7,65.2,68.6,64.9,68.6z
	 M63.8,87.3c-1.1,0.1,1.7,0.4,2.1-0.1C65,87.3,64.4,87.3,63.8,87.3z M66.7,60.3c0,1.5-0.5,4-1.6,5.2C66.9,65,68.7,61.7,66.7,60.3z
	 M63.3,68.8c0-0.2,0-0.3-0.3-0.3c-0.8,0.7-3.3,0.1-4,0.5c1.1,2.4,1,7,1.2,11c0,0.8-0.2,2.2,0.9,2c0.3-0.4,0.1-1.3,0.4-1.7
	c0.1,0.4-0.3,1.2,0.3,1.2C62.8,77.2,60.2,71,63.3,68.8z M61.8,82.8c0,0.2-0.4,0.8,0.1,0.8C62.2,83.6,62.2,82.6,61.8,82.8z
	 M60.4,67.9c0.2,0,0.4,0,0.7,0c-0.1-0.2-0.1-0.7-0.1-0.7S60.4,67.5,60.4,67.9z M60.6,67.1c0.3-0.3,0.8-0.5,0.9-0.9
	c-0.2,0-0.7,0.2-0.7,0.2S60.4,66.8,60.6,67.1z M62.2,67.3c0.3-0.4,0.5-1,0.8-1.3c-0.8-0.1-0.9,0.6-1.2,1.1
	C62.1,67,62.1,67.2,62.2,67.3z M57.7,70.6c0.2,3.1,0.1,4.8,0.3,7.3C58.2,75.7,58.3,72.1,57.7,70.6z M77.5,85.3
	c-1.5,0.7-2.1,2.3-3,3.6c1-0.4,1.8-1.8,2.9-1.7C77.2,87,77.4,85.8,77.5,85.3z M88.9,54.2c-0.4,0.3-0.7,0.7-0.9,1.2
	C88.5,55.2,88.5,54.6,88.9,54.2z M88.2,53.3c-0.1,0-0.3,0-0.3,0.1c-1,0.8-1.8,1.7-2.7,2.7C86.5,55.4,87.4,54.4,88.2,53.3z
	 M93.7,27.9c-0.3-1.6-0.9-3.9-1.5-5.5c-1-2.6-1.1-3.3-2.4-5.1c-1.6-2.3-2.2-4.4-6.6-8.2c-6.4-5.7-9.8-6-13.6-6.8
	c0,0.1,0,0.3-0.1,0.3c-5-1.8-14.2-2.1-18.9-0.3C39.7,5.6,32.7,12.6,28.3,22.4c-1.1,2.5-2,5.1-1.6,7.7c-0.4,0.3-0.8,1.5,0,1.5
	c0.2-2.7,1.1-4.8,2-6.8c-1.3,3.2-2.3,7.6-0.9,11.1c0.5-5.9,2-10.9,4.1-15.2c-0.7,2-1.8,4.3-2,6.4c1.4-4.2,3.5-8.4,6-11.1
	c-4.2,5.7-8.6,15.5-7.7,25.3c0.3,2.9,1.3,4.7,2.1,6.9c0.9,2.2,1.4,4.6,3,6.2c-0.9-3.5-3.1-6.4-3.6-9.9C32,48.6,33.1,54,36.5,57
	c0.2-0.3-0.4-0.6,0-0.7c0.4,0.9,0.9,1.7,2,1.9c-1.3-2-3.4-3.8-3.7-6.4c1.5,3,4,6.8,6.2,7.7c0.1-0.2,0.1-0.3,0.3-0.4
	c-0.1,0.9,0.3,1.3,0.8,1.6c-0.7,0.4-1.6-0.5-2.1-0.3c0.7,0.4,1.6,0.7,2.3,1.2c-2.3-0.6-3.9-1.9-5.8-2.9c0.5,1.2,1.7,1.6,2.5,2.4
	c-0.5-0.2-1-0.5-1.5-0.8c1,2.3,2.7,4.4,3.3,7.4c1.1,5.2,0.1,11.3,2.7,14.7c1.5,1.2,4.8,3.1,7,2.6c-2.8-0.9-5.6-2.5-6.8-4.5
	c1.5,1.3,3,2.8,5.2,3.4c0-0.5-1.2-0.6-0.9-0.9c1,0.5,2,1,3.4,1.1c0.9-0.6,1.4-1.4,2.5-1.7c-0.2-2.1,0.3-4.2,0.1-6.2
	c-0.2-3.3-1.9-6.1,1.5-7.3c0-0.5,0.2-0.7,0.1-1.3c-0.9,0.1-1.3-0.9-1.1-2c-2.9-0.8-2.2-6.7,0.5-7.2c-3.2-7.8-6.2-15.7-10.2-22.7
	c-0.7-0.4-1.1-1.1-1.2-2c-0.3-0.3-0.6-0.7-0.5-1.5c0.3-0.2,0.3,0,0.7,0c-0.1-1-0.7-1.5-1.1-2.5c0.3-0.1,0.2-0.6,0.4-0.8
	c-0.4-0.4-0.2,0.3-0.7,0.3c-0.2-0.6-1.8-1-0.9-1.9c1.4,0.4,2.4,0.5,3.7,1.3c0.3,0,0.5-0.4,1.2-0.4c0.5,0.1,0.6,0.6,1.1,0.8
	c0-0.5,0.3-0.7,0.8-0.7c0.7,0.1,0.3,1.3,1.2,1.2c0.3-0.5,0.3-1.8,1.6-1.7c0.5,0,0.5,0.5,0.8,0.8c0.5,0,0.3-0.7,0.9-0.5
	c1.5,0.2,2.6,0.1,4.1-0.1c0.1-0.5,0.3-0.8,0.4-1.3c0.5,0,0.7-0.3,1.2-0.3c0.2,0.8-0.2,1.1-0.4,1.6c0.4,0,0.3,0.5,0.4,0.8
	c0.1,0.5-0.5,0.2-0.4,0.7c0.3,4.1,0.8,7.9,1,11.7c0-0.2-0.5-1.2-0.7-1.3c0,1.2,0.1,2.3,0.4,3.2c0.9-0.2,2.1,0.5,3.2,0
	c-0.9-0.7-2.5-0.1-2.9-1.5c1.8,0.5,5.1-0.5,5.3,1.7c-3.6,3.2-1.2,8.1-2.3,13.4c-0.7-0.7-0.5,0.7-1.2,0.3c0-0.7,0.4-1.1,0.5-1.7
	c-0.3-0.2-0.7-0.4-0.8-0.8c0.3-0.5,0.7-1,0.9-1.6c-0.4,0-0.8,0-0.9-0.3c0.1-0.5,0.8-0.9,0.5-1.3c0.2,0.4-0.7,0.5-0.8,0.3
	c0.2-1.2,1.3-1.6,1.5-2.8c-0.8-0.4-0.8,1-1.2,1.3c-0.3,0.2-0.6-0.8-0.5,0.1c-0.3,2.2-0.3,3.7-0.4,6.4c-0.6-0.2-0.2,0.6-0.8,0.4
	c0.1-3,0.3-6.7,0.1-9.7c0-0.7,0.4-2.3-0.5-2.7c-0.3,0.4,0.3,1.5-0.1,2.3c-0.5-0.7,0-2.4-0.5-3.2c-0.2,4.6,0.3,8.4,0,12.2
	c-0.8-0.5-0.3-1.6-0.3-2.4c0-2.8-0.4-6-0.3-8.6c-0.4-0.6-1-0.9-1.3-1.6c0.1-0.9,0.9-1.1,1.3-1.7c-0.1-4.5,0.2-10.4,0-13.6
	c-0.9,0.3-2.4,1.5-3.2,0.4c0,0.7-0.9,0.6-1.3,0.4c-0.2,0.4-0.4,0.8-0.8,1.1c-0.6,0.1-0.5-0.6-1.1-0.7c-0.8,0.1-0.8,1-1.6,1.1
	c-0.6,0-0.7-0.6-1.3-0.9c-0.5,0.9-1.5,0-2-0.3c-0.6,0.7-1.7-0.4-2.5-0.3c-0.1,1,0.7,2.1,0.4,3.3c4.2,8.3,8.3,16.8,11.7,26
	c0.7-0.1,1.2,0.1,1.3,0.7c-0.1,0.5-1,0.4-0.5,1.1c0.6,0.2,0.7-0.7,0.8-1.2c1.3-0.4,2-1.6,3.4-1.5c0.3,0.3,0.6,0.6,1.2,0.7
	c0.3,0,0.1-0.4,0.4-0.4c0.7,0.6,1.6,1.6,2.3,1.7c-0.4-0.5-1.2-0.7-1.5-1.3c0.7-0.2,0.4-0.7,1.1-0.8c1.4-0.3,2.7,1.5,3.3,2.3
	c0.6-1,1.1-2.8,2.1-2.9c-0.3,1.4-2.4,2.1-1.7,3.7c4.2-1.4,6-5.8,9.3-7.7c-2.9,2.7-5.1,6.2-9,8c0.8,2.5-1,4.3-1.2,6.6
	c-0.5,0.1-0.7,0.5-0.8,1.1c1,0.8,2.6,2,2.5,3.4c-0.4,3.5-0.2,7.5-0.2,11.3c1.8,0.1,2.9,0.9,4.8,1.1c0.5-0.2,0.6-0.9,1.2-0.9
	c0.1,0.2,0,0.9,0.5,0.5c0.4-0.4-0.2-0.1-0.3-0.4c0.4-0.1,0.6-0.3,0.9-0.4c0.1-0.5-0.4-0.4-0.3-0.9c0.6-0.9,1.8-1.2,2.5-2
	c-0.9-0.3-1.4,0.8-1.9,0.1c0.4-0.7,1.2-1,1.7-1.6c-0.8-0.1-1,0.9-1.7,0.4c0.8-1,1.9-2,2.8-2.5c-0.1,0.9-1.4,1.2-1.3,1.9
	c0.4-0.2,1-0.4,1.1,0.1c-0.3,0.5-1,0.7-1.3,1.3c0.5,0.1,1.3-0.2,1.2,0.4c-0.8,0.7-1.8,1.2-2.5,2c0.7,0.7,1.5-0.8,2,0
	c-0.5,0.5-1.6,1-1.6,1.6c1.7-0.2,1.7-2.2,2.5-3.3c0.5,0.6,0,1.4,0,1.7c2.1-2.3,2.1-6.8,2.4-9.7c0.3-3,0.8-5.8,1.7-8.3
	c1.1-2.9,3.1-4.9,4.1-7.3c-0.3,0.1-0.6,0.9-0.8,0.7c0.5-0.5,0.9-1.2,1.3-1.9c-3.5,2.9-6.2,6.5-7.6,11.5c-0.9,0.1-1.3,0.6-1.7,1.2
	c0.4,0.1,0.8-0.5,0.9-0.3c-0.4,0.3-1.2,1.2-1.6,0.5c0.1-0.9,0.9-1,1.3-1.6c-0.4,0-1,0.1-1.1-0.3c0.4-0.7,1.2-1,1.7-1.6
	c-0.9-0.1-1.7,1.2-2.4,0.4c0.6-0.9,1.8-1.3,2.5-2.1c-0.7,0-1.2,0.9-1.9,0.4c0-0.8,1.5-1.2,2-2c-1.1,0.1-1.7,1.4-2.7,1.2
	c1.1-1.1,3.3-1.7,3.4-3.3c1.5-0.8,3-1.6,3.8-3c-1.5,0.9-2.8,2.1-4.4,2.9c0-0.3,0.4-0.3,0.5-0.5c-0.4-0.1-0.7,0.6-0.9,0.3
	c6.9-4.8,13.6-10.4,14.3-20.8C94.2,34.2,94.4,31.1,93.7,27.9z M85,56.9c-0.2,0.4-1.3,0.6-0.9,1.1C84.4,57.6,85.2,57.2,85,56.9z
	 M82.8,58.6c-0.7,0.2-1.3,0.6-2,0.9c0.4,0.8-0.4,1.1-0.7,1.6c0.4,0.4,0.6-0.4,0.9,0c-0.3,1-2,1.2-2.1,2
	C81.3,62.7,81.6,60.2,82.8,58.6z M80.4,63.2c-0.6,0.7-1.6,0.9-2.1,1.7c0.6-0.2,1.3-0.4,2-0.5C80.3,64.1,80.9,63.2,80.4,63.2z
	 M78.7,66.4c0.6-0.3,1.4-0.4,1.5-1.2C79.6,65.5,78.6,66,78.7,66.4z M61.7,51.8c0,0.2-0.5,0.5-0.1,0.7C61.8,52.3,62.2,52,61.7,51.8z
	 M61.7,53.8c-0.2,0.4-0.4,0.7-0.5,1.1C61.9,55.2,62,54.1,61.7,53.8z M61.8,50.8c0-0.2,0-0.5-0.1-0.5c-0.1,0.3-0.8,0.6-0.4,0.9
	C61.3,50.9,61.6,50.9,61.8,50.8z M62,47.8c0-0.4,0-0.7-0.3-0.8c-0.2,0.7-1.2,1-0.9,1.7C61.4,48.7,61.4,47.9,62,47.8z M61.6,45.9
	c-0.5,0.7-2.1,1.6-1.3,2.7C60.4,47.4,61.9,47,61.6,45.9z M60.2,49.7c0.1-0.3,0.3-0.5,0.4-0.8c-0.4,0-0.3,0.2-0.5,0
	C60.2,49.1,59.9,49.7,60.2,49.7z M60,46.7c0.5,0.1,0.4-0.5,0.4-0.9c-0.3,0-0.3,0.1-0.5,0.1C59.8,46.2,60.1,46.2,60,46.7z M61.4,43.9
	c-0.4,0.6-1,0.9-1.3,1.5C60.9,45.7,61.9,44.3,61.4,43.9z M60.5,43.9c-0.7,0.1-1.6-0.3-2.1,0.3c0.2,0.3,1-0.3,1.1,0.3
	C59.9,44.3,60.2,44.1,60.5,43.9z M40,59.5c-0.8-0.8-2.2-1.6-3.2-1.7C37.5,58.6,38.9,59.4,40,59.5z M62.8,4.9
	c5.7-0.5,10.4,2.8,14.2,4.6c-3.8-2.4-7.7-4.6-13.4-5.2C63.4,4.7,63,4.7,62.8,4.9z M55.2,8.9c0.3-1.5,2.8-4.6,1.3-4.1
	c-1.9,0.6-3,2.8-4.4,3.6c0.4-1,2.3-3.4,1.2-2.9c-0.8,0.2-1.5,0.9-2,1.5c-1.7,1.9-3.1,4.3-4.8,6.2c0.4-1.9,2.2-3.4,2.3-4.9
	c-0.6,1.9-2.6,3.2-2.5,5.4c1.3-1,2.1-2.9,3.2-4.2c1.1-1.4,2.2-2.8,3.6-3.6c-0.8,2.1-2.4,3.5-3.2,5.6c0.5,0.1,0.7-0.4,1.2-1.3
	c1.7-1.6,3-3.7,5.2-4.9c-0.2,1.6-1.6,2.7-1.3,4.2c1.9-0.9,2.8-2.7,4.8-3.4C57.6,6.3,56.8,8,55.2,8.9z M77.1,9.8
	c0.8,0.8,2.4,1.4,2.7,2.3c-3.3-1.4-6.7-3.3-10.5-4.4c-2.1-0.6-3.6-1.2-5.8-1.7c-0.5-0.1-1.5-0.6-1.7,0c6.5,1.6,12.2,4,16.2,8.1
	c-5.2-2.6-10.5-5.8-17.4-6.4c7.6,1.3,14.1,4.7,19.7,8.1c-1.4-1.4-3.1-2.8-4.8-4.1c-1.7-1.3-3.7-2.3-5.2-3.4
	c5.4,1.9,10.4,4.4,14.2,8.1c3.2,3.2,4,8.4,4.2,14.3C87.1,23,84.8,16.2,79,12.7c5.5,4.5,9.8,12,8.7,23.1c0.5-1.5,0.2-3.7,0.5-5.3
	c1,1.7,0.8,4.5,0.4,6.7c1.6-5.5,0-13.3-1.6-17.5c2.8,4,4.1,10.5,3.4,17.1C92.6,22.7,85.1,14.5,77.1,9.8z M49.9,6.4
	c-2.7,1.4-4.3,4.7-6.1,6.5c0.4-1,2.9-4.9,1.5-4.3c-2.1,0.9-3.5,4.7-4.9,5.8c0.3-1,2-4,0.7-3c-2.4,1.1-3.2,3.9-4.6,6.1
	c0.3-1.8,1.6-3.2,1.9-4.6c-1.5,2.5-2.6,5.4-3.6,8.5c-1,3.1-2.2,6.4-1.9,9.8c0.8-5.9,2.6-11.7,5-15.8c0.8-1.4,1.6-3.1,3-3.6
	c-0.2,1.2-0.7,2.5-1.2,3.6c-0.5,1.1-1.4,2.2-1.2,3.2c1.3-2.3,2.7-5,4.2-6.9c0.5-0.7,0.9-1.7,1.9-1.7c-0.4,1.9-1.7,3.4-1.7,5.2
	C44.9,11.9,47.2,8.4,49.9,6.4z M80.4,10.9c1,0.4,2.3,2,2.7,2.1C82.3,12.2,81.3,11,80.4,10.9z M39.2,11.5c-0.3,0.2-0.9,0.9-0.7,1.2
	C38.8,12.4,39,11.9,39.2,11.5z M84.9,20.9c-1.9-4-4.4-7.4-7.8-8.6c5.1,3,7.8,8.2,9.9,14.2C86.7,24.1,85.7,22.8,84.9,20.9z
	 M37.2,13.8c-0.3,0.6-1.3,1.3-1.2,1.9C36.3,15.1,37.3,13.9,37.2,13.8z M32.1,20.2c0.3-0.7,0.6-1.4,0.9-2
	C32.4,18.3,32.2,19.7,32.1,20.2z M75.6,28.1c-0.6-0.7-1.4,0.3-2.1,0.5c-0.5,0.1-0.3-0.5-0.9-0.4c-0.4,0.4-0.8,0.7-1.3,0.9
	c-0.4-0.1-0.4-0.6-0.9-0.5c-0.1,0.6,0.3,0.6,0.4,0.9c1.6,0,3.3-1.3,4.6-0.7c-0.2,0.8-1.1,1.6-0.7,2.7c-0.1-0.3,0.3-0.6,0.4-0.3
	c-0.3,1.7-0.8,3.1-1.6,4.2c-0.2,0-0.1-0.2-0.3-0.3c-2.2,7-4.8,13.9-7.6,20.7c0.2,0.1,0.5,0.2,0.8,0.3c2.8-8.7,6.6-17.1,9.7-25.2
	c-0.9-1.1,0.3-2.1,0.5-3.3C76.2,27.4,75.6,27.6,75.6,28.1z M74,33.3c-0.2,0.5-0.8,1.3-0.5,1.9C73.6,34.6,74.2,33.2,74,33.3z
	 M79.4,56.7c1.9-2.3,4.3-4.8,5.2-7.7c-1.9,4.1-5.1,6.8-7.7,10.2c6.3-4.6,11.9-10.7,13.4-19.6C88.4,47,84.5,52.9,79.4,56.7z
	 M84.7,46.4c-1.3,2.2-2.4,4.6-4,6.6c-1.5,2-3.4,4-5.7,4.8c1.5-4.2,5-6.4,7.2-9.9c-3.2,2.8-5.4,6.7-8.5,9.7c-0.4,0.4-1.1,0.4-1.2,1.2
	c1.1-0.5,1.8-2,2.7-2.3c-0.4,0.3-0.6,0.8-0.5,1.6C74.9,59.8,82.5,53.1,84.7,46.4z M46.1,77.9c0.5,0.1,1.1,0.8,1.7,0.4
	c-0.4-1.1-2.1-1.8-2.4-2.7c0.5,0.3,1.3,0.8,1.9,0.5c-0.2-1.1-1.6-1.6-1.6-2.4c0.5,0.1,1,0.3,1.3-0.1c-0.6-2-2.7-3.1-3.3-4.5
	c0.6,0.2,1,0.7,1.9,0.8c0.1-1.2-1.2-1.9-1.6-3c0.4,0.2,1.1,0.8,1.7,0.4c-0.5-1.7-2.1-2.4-2.7-4c-0.2,0.1-0.3-0.2-0.4,0
	c0.7,1,1.8,2.4,2.1,3.4c-1.4-0.5-1.8-1.8-3-2.4c0.8,1.6,2.4,3.1,2.9,4.6c-1.1-0.2-1.8-1.5-2.7-1.5c1.1,2.1,3.6,3.7,4.2,5.8
	c-1.8-0.4-2.5-1.8-3.8-2.7c0.4,1.8,3.3,2.8,3.7,4.6c-1.3-0.5-2.3-1.3-3.3-2.1c0.9,1.6,3.1,2.6,3.6,4.2c-1.1-0.5-2.3-1.6-3.2-1.9
	c1.3,1.8,3.8,3.1,4.8,4.8c-1.6-0.4-2.5-1.5-4.2-1.7c1.5,1.2,3.3,2.1,5.6,2.5C49.1,79.8,46.5,79,46.1,77.9z M76.5,72.2
	c0.6,0.4,1-0.4,1.7-0.4c-0.5,0.9-2,1.3-1.9,2.4c0.3,0,0.3-0.1,0.5-0.1c-0.3-1.2,1.5-1.3,1.6-2.5c-0.8-0.1-0.8,0.5-1.6,0.4
	c0.5-0.7,2-1.2,2-2.1C78.3,70.8,76.9,71,76.5,72.2z M78.7,73.2c-0.4,0.1-0.3,0.2-0.5,0.3c-0.1,0.8-2,1.1-2,2.4
	c0.7,0.4,1.2-0.9,1.9-0.5c-0.7,0.4-2.3,1.2-1.7,2c0.3-0.3,1.1-0.1,1.2-0.7c-0.4-0.1-0.7,0.5-0.9,0.1c0.7-0.7,1.8-1,2.1-2
	c-0.9,0.1-1.1,0.4-2,0.7C77,74.4,78.7,74.1,78.7,73.2z M46.1,81c-0.9-0.2-1.4-0.9-2.3-1.2c1.4,1.5,3.9,2.7,5.8,3.2
	c-1.1-1-2.8-2-4.1-2.6C45.8,80.5,45.9,80.8,46.1,81z"/>
</svg>
