<?xml version="1.0" encoding="utf-8"?>
<!-- Generator: Adobe Illustrator 19.2.1, SVG Export Plug-In . SVG Version: 6.00 Build 0)  -->
<svg version="1.1" id="Layer_1" xmlns="http://www.w3.org/2000/svg" xmlns:xlink="http://www.w3.org/1999/xlink" x="0px" y="0px"
	 viewBox="0 0 120 120" style="enable-background:new 0 0 120 120; fill: #fee700;" xml:space="preserve">
<path d="M116.5,107c-0.4-0.6-0.7-1.4-0.8-2.1c-0.1-2.5-0.7-4.7-2.1-6.7c-1.6-2.4-3.7-4.2-5.9-6c-2.2-1.7-4.4-3.4-6.5-5.2
	c-2.9-2.5-4.9-5.8-6.9-9.1c-1.1-1.9-2.4-3.7-4-5.1c-2.3-1.9-4.8-3.2-7.9-1.8c-1.6,0.7-3.1,0.5-4.5-0.4c-0.5-0.3-1-0.7-1.5-1
	c-0.7-0.5-1.2-1.2-1.3-2.1c0-0.4,0.5-0.9,0.8-1.3c1.4-2,2.8-4,4.3-5.9c1.3-1.7,2.5-3.5,3.2-5.5c2.5-7,2.7-14.2,1.3-21.4
	c-1.8-8.9-5.6-16.7-12.1-23.2c-2.2-2.2-4.3-4.4-7.1-5.7C59.2,1.6,52.7,0.1,45.7,0c-5.4,0.2-10.9,1-16.2,2.7C24,4.5,19.1,7.5,15,11.7
	c-2.7,2.8-5.2,5.9-6.9,9.5c-1.4,2.9-3.1,5.7-4,8.7c-1.7,5.3-2,10.8-1.4,16.4c0.5,5.2,2,10.2,4.5,14.7C11.1,68,17,73.4,24,77.3
	c5.4,3.1,11.3,4.7,17.6,4.4c3.1-0.2,6.2-0.6,9.3-1.2c2.9-0.6,5.8-1.5,8.5-2.6c2-0.8,3.9-1.9,5.9-2.9c1.4-0.7,3.2-0.2,4.1,1.1
	c2,2.7,1.5,5.6,1,8.6c-0.2,0.9-0.3,1.8-0.2,2.7c0.2,2.1,1.4,3.7,2.8,5c2.9,2.7,5.8,5.2,8.7,7.9c2.2,2,4.4,4.1,6.5,6.2
	c2.4,2.5,4.3,5.3,5.8,8.4c0.7,1.4,1.6,2.3,3.1,2.5c1.2,0.2,2.3,0.4,3.5,0.6c0.3,0,0.6,0.1,0.8,0.3c0.7,0.9,1.6,1.3,2.7,1.5
	c1.8,0.4,3.5,0.2,5.2-0.2c3.1-0.6,5.7-2.1,7.2-4.9C117.8,112.2,118.2,109.6,116.5,107z M9.1,53.9c-0.2,1.2-0.4,2.3-0.7,3.5
	C7.1,55.3,7.2,54.5,9.1,53.9z M9.5,59.5c-0.6-0.7-0.8-2.1-0.2-2.8c0.1-0.1,0.4-0.1,0.7-0.2C9.8,57.6,9.6,58.5,9.5,59.5z M10.9,61.9
	c-0.9-1.1-1-1.3-0.8-2.5c0.3,0,0.6,0,0.9,0C11.1,60.2,11,61,10.9,61.9z M14.7,66.6c-0.1,0-0.2,0-0.3,0.1c-0.2-0.4-0.3-0.9-0.5-1.4
	C14.8,65.4,14.8,65.4,14.7,66.6z M18.1,69.8c-1.3-0.6-1.1-0.8-1-2.5c0.3,0,0.6,0,1,0C18.1,68.1,18.1,69,18.1,69.8z M18.9,69.3
	c0.4,0.1,0.7,0.2,1.2,0.3c0,0.6,0.1,1.2,0.1,1.8C18.9,70.8,18.8,70.7,18.9,69.3z M26.4,75.1c-0.7-0.2-1.3-0.3-1.2-1.3
	c0.4-0.1,0.8-0.1,1.2-0.2c0,0.2,0,0.5,0,0.7C26.4,74.5,26.4,74.8,26.4,75.1z M28.7,75.5c0.6-0.6,1.2-1.1,1.7-1.6c0,0.6,0,1.1,0,1.7
	c0,0.4,0,0.7,0,1.1C29.1,76.5,28.9,76.4,28.7,75.5z M35.6,77.4c0.3-0.1,0.7-0.2,1.1-0.4c0.1,0.5,0.2,0.9,0.3,1.5
	C36.2,78.3,35.5,78.4,35.6,77.4z M41,78.3c-0.5-1,0.7-1.1,0.9-1.8c0.3,0.8,0.5,1.6,0.8,2.5C42,79,41.4,79.1,41,78.3z M45.2,78.6
	c-0.5-0.8-0.4-1,0.6-1.8c0.4,0.6,0.7,1.2,1.2,2C46.2,78.6,45.6,79.3,45.2,78.6z M52,77.4c0.3-0.3,0.6-0.7,0.9-1.1
	c0.3,0.4,0.5,0.8,0.8,1.2C52.8,78.1,52.5,78,52,77.4z M55.8,76.1c0.3-0.4,0.6-0.8,1-1.4c0.4,0.6,0.7,1,1.1,1.6
	C57.1,76.7,56.4,77.2,55.8,76.1z M63.3,73.7c-0.2-0.2-0.5-0.4-0.7-0.6c0.2-0.4,0.5-0.7,0.7-1.2c0.4,0.3,0.8,0.5,1.2,0.8
	C64.1,73.1,63.7,73.4,63.3,73.7z M66.8,70.9c-0.2-0.2-0.4-0.4-0.6-0.5c0.2-0.4,0.5-0.7,0.7-1.1c0.3,0.2,0.6,0.4,1,0.7
	C67.5,70.3,67.2,70.6,66.8,70.9z M66.9,68.5c-0.4-0.3-0.9,0-1.1,0.7c-0.1,0.2,0.1,0.7-0.4,0.5c0,0.2-0.1,0.4-0.1,0.6
	c0.1,0.2,0.3,0.3,0.4,0.5c0.1,0.1,0.3,0.2,0.5,0.4c-0.4,0.4-0.8,0.7-1.2,1c-0.5-0.3-1-0.6-1.5-1c0.1-0.2,0.2-0.3,0.3-0.5
	c0-0.3,0-0.5,0-0.8c-0.3,0.1-0.7,0-0.8,0.2c-0.4,0.6-0.7,1.3-1.1,2c-0.1,0-0.2,0-0.2,0c-0.3-0.1-0.6-0.1-0.9-0.2
	c0.2,0.2,0.3,0.5,0.5,0.7c0.4,0.4,0.9,0.8,1.4,1.2c-2.1,1.2-2.1,1.2-3,0.2c0.3-0.5,0.6-1,0.8-1.6c0.1-0.3,0.1-0.9-0.1-1
	c-0.5-0.3-0.6,0.2-0.7,0.6c-0.3,0.7-0.8,1.3-1.1,2c-0.1,0.3-0.1,0.7-0.2,1c0.4,0,0.7-0.1,1.1-0.1c0-0.1,0-0.1,0-0.2
	c0.2,0.2,0.4,0.3,0.6,0.5c-0.3,0.1-0.4,0.2-0.6,0.3c-0.7,0.5-1.1,0.3-1.5-0.4c-0.2-0.4-0.5-0.8-0.8-1.2c-0.3-0.5-0.6-0.5-1-0.1
	c-0.4,0.4-0.7,0.8-1,1.2c-0.2-0.1-0.5-0.3-0.7-0.4c0,0.3-0.1,0.7,0.1,1c0.3,0.5,0.7,0.9,1,1.4c-0.8,0.5-1.1,0.5-1.6-0.3
	c-0.4-0.6-0.9-1.1-0.5-1.9c0.1-0.2-0.1-0.5-0.2-0.8c-0.2,0.1-0.5,0.2-0.6,0.4c-0.4,0.6-0.7,1.3-1.1,2c-0.1,0-0.1,0-0.2-0.1
	c-0.1-0.2-0.1-0.5-0.2-0.7c-0.1-0.2-0.2-0.3-0.3-0.5c-0.1,0.2-0.3,0.5-0.3,0.7c0.2,0.6,0.5,1.2,0.8,1.8c0,0.1,0.1,0.2,0.2,0.4
	c-0.6,0.1-1.1,0.2-1.6,0.2c-0.5,0-1-1.3-0.7-1.7c0.3-0.4,0.6-0.8,0.9-1.3c0.1-0.2,0-0.5-0.1-0.8c-0.2,0.1-0.6,0.1-0.7,0.3
	c-0.6,0.6-1.1,1.3-1.7,2c-0.1,0.2-0.1,0.4-0.2,0.7c0.3,0.1,0.7,0.1,1.1,0.2c0.1,0.1,0.2,0.4,0.3,0.7c-1.3,0.4-2.1-0.1-2.5-1.7
	c-0.1-0.5-0.1-1.1-0.7-1.1c-0.3,0-0.7,0.5-1,0.8c-0.1,0.1-0.1,0.2-0.3,0.3c-0.1-0.2-0.1-0.3-0.2-0.4c-0.1-0.1-0.2-0.1-0.4-0.2
	c-0.1,0.2-0.2,0.3-0.2,0.5c0,0.5,0,1,0.1,1.4c0,0.2,0.2,0.3,0.3,0.4c0.2,0.1,0.5,0.2,0.6,0.4c-0.9,0.6-1.3,0.3-1.5-0.4
	c-0.3-1-0.4-2-0.7-2.9c-0.1-0.2-0.2-0.4-0.2-0.6c-0.2,0.1-0.5,0.1-0.7,0.3c-0.3,0.4-0.6,0.9-0.9,1.3c-0.2-0.3-0.4-0.7-0.6-1
	c-0.1,0.4-0.1,0.8-0.3,1.1c-0.5,1,0.4,1.6,0.5,2.6c-0.2-0.2-0.4-0.3-0.5-0.5c-0.3-0.9-0.5-1.8-0.8-2.8c-0.1-0.2-0.2-0.4-0.3-0.5
	c-0.1,0.2-0.3,0.4-0.3,0.6c0.2,1,0.4,2,0.6,3c-0.4,0-0.8-0.1-1.2-0.2c-0.1,0-0.3-0.2-0.3-0.4c-0.1-0.3-0.1-0.7-0.2-1
	c-0.2-0.6,0-1.1,0.5-1.5c0.2-0.2,0.4-0.3,0.5-0.6c0.1-0.2,0-0.4,0-0.6c-0.2,0-0.5-0.1-0.7,0c-0.3,0.3-0.6,0.7-0.9,0.9
	c-0.4,0.3-0.8,0.6-1.2,0.9c-0.1-0.2-0.2-0.2-0.2-0.2c-0.1-0.3-0.3-0.6-0.4-0.9c-0.1,0.3-0.2,0.7-0.2,1c0,0.5,0.1,1.1,0.2,1.6
	c-1.4,0-1.6-0.1-1.7-1.4c0-0.2,0.1-0.5,0.3-0.7c0.4-0.4,0.9-0.8,1.3-1.3c0.1-0.1,0-0.4,0.1-0.7c-0.2,0-0.5-0.1-0.7,0.1
	c-0.3,0.2-0.6,0.5-0.8,0.8c0-0.1-0.1-0.1-0.1-0.2c-0.2,0.1-0.5,0.2-0.7,0.4c-0.1,0-0.1,0.2-0.2,0.2c-0.7,0.5-0.7,0.6-0.1,1.1
	c0.3,0.2,0.4,0.7,0.6,1.1c-1.7-0.1-1.9-0.8-1.7-2.1c0-0.2,0-0.4,0.1-0.6c0.1-0.6-0.1-0.9-0.7-0.8c0.1-0.2,0.3-0.3,0.3-0.5
	c0-0.3-0.1-0.5-0.2-0.8c-0.2,0.1-0.5,0.2-0.7,0.4c-0.4,0.4-0.7,0.8-1,1.2c-0.1-0.1-0.2-0.1-0.3-0.2c0-0.3,0.1-0.5,0.1-0.8
	c0-0.2-0.1-0.3-0.2-0.5c-0.1,0.1-0.4,0.2-0.4,0.4c-0.1,0.8-0.1,1.7-0.2,2.5c-0.5-0.1-0.8-0.3-0.9-1c0-1.1,0-2.2,1-2.9
	c0.2-0.1,0.1-0.5,0.2-0.8c-0.3,0.1-0.6,0-0.8,0.2c-0.4,0.3-0.8,0.8-1.2,1.2c-0.3,0.2-0.7,0.2-1.2,0.4c0-0.6,0-1,0-1.4
	c0-0.2-0.2-0.4-0.4-0.6c-0.1,0.2-0.3,0.4-0.3,0.6c0,0.9,0.1,1.8,0.2,2.8c-0.7-0.1-0.9-0.5-1-1.1c-0.3-1.2-0.2-2.2,1.1-2.8
	c0.5-0.3,0.9-1,1.3-1.5c0.1-0.1,0-0.4,0-0.6c-0.2,0.1-0.3,0.1-0.5,0.2c-0.3,0.3-0.7,0.6-1,0.8c-0.4,0.3-0.7,0.6-0.9,0.6
	c-0.3-0.1-0.5-0.3-0.8-0.4c-0.1,0.3-0.2,0.6-0.3,0.7c-0.4,0.4-0.7,0.6-1,0.9c0.3,0.2,0.6,0.4,1.1,0.7c0.1,0.4,0.2,1,0.3,1.6
	c-1.8-0.7-2.5-1.8-2.1-3.7c0-0.2,0.3-0.4,0.4-0.5c0.5-0.4,0.8-0.8,0.6-1.4c-0.3,0.1-0.6,0.2-0.8,0.4c-0.6,0.5-1.3,0.7-2,0.5
	c-0.1-0.4-0.1-0.9-0.2-1.3c0.4-0.2,0.8-0.4,1.1-0.7c0.2-0.2,0.2-0.5,0.2-0.7c-0.3,0-0.6-0.1-0.8,0c-0.7,0.2-1.3,0.6-2,0.9
	c-0.1-0.7-0.2-1.2-0.2-1.6c-0.1,0-0.2,0-0.3,0c-0.5,1.1,0,2.3-0.3,3.5c-0.7-0.4-1.1-0.8-1-1.7c0-0.2,0-0.4,0-0.6
	c-0.2-0.9,0.3-1.4,1-1.8c0.3-0.2,0.9-0.3,0.6-0.9c-0.3-0.6-0.7-0.1-1.1,0c-0.1,0.1-0.2,0.1-0.5,0.2c0-0.3,0-0.6-0.1-0.9
	c0-0.2-0.2-0.3-0.3-0.5c-0.1,0.2-0.3,0.3-0.4,0.5c-0.1,0.3,0,0.6,0,0.9c-0.1,0.3-0.3,0.5-0.4,0.8c-0.1,0-0.2-0.1-0.3-0.1
	c0-0.5-0.1-1,0-1.5c0-0.3,0.2-0.6,0.5-0.8c0.3-0.3,0.7-0.5,1-0.9c0.1-0.1,0-0.4,0.1-0.6c-0.2,0-0.5-0.1-0.7,0
	c-0.3,0.2-0.5,0.4-0.7,0.6c-0.3-0.2-0.6-0.5-0.8-0.7c0,0.3-0.1,0.6-0.2,1c-0.1,0-0.3-0.1-0.6-0.1c-0.3,0-0.5,0.1-0.8,0.2
	c0.1,0.2,0.2,0.6,0.4,0.7c0.3,0.2,0.7,0.2,1.2,0.2c0,0.8,0,1.7,0,2.7c-0.8-1.1-2-1.8-1.8-3.3c0.1-0.6,0.1-1.3,0.1-2
	c0-0.7,0.1-1.2,0.7-1.6c0.2-0.1,0.1-0.5,0.1-0.8c-0.3,0.1-0.6,0-0.8,0.2c-0.5,0.3-0.9,0.6-1.5,1c0.1-0.8,0.2-1.4,0.3-2
	c0-0.1,0.2-0.2,0.4-0.4c0.3-0.2,0.6-0.4,0.7-0.7c0.1-0.2-0.1-0.5-0.1-0.7c-0.2,0.1-0.5,0.1-0.6,0.2c-0.4,0.5-0.9,0.5-1.4,0.4
	c0.1-0.7,0.2-1.4,0.2-2c0-0.3-0.1-0.7-0.3-0.9c-0.1-0.1-0.5,0.1-0.8,0.2c-0.1,0-0.2,0.1-0.4,0.3c0.1-0.5,0.2-0.9,0.3-1.3
	c0-0.2-0.2-0.4-0.3-0.7c-0.1,0.2-0.3,0.4-0.4,0.6c-0.2,0.7-0.5,1.5-0.7,2.5c-0.2-0.7-0.4-1.1-0.5-1.6c0-0.6-0.1-1.1,0.8-1.3
	c0.5-0.1,1-0.6,1.4-1c0.1-0.1,0.2-0.5,0.1-0.6c-0.1-0.1-0.5-0.2-0.6-0.1c-0.3,0.1-0.5,0.4-1,0.5c0.2-0.5,0.5-0.9,0.7-1.4
	c0.3-0.5,0.2-0.7-0.4-0.6c-0.4,0.9-0.9,1.9-1.4,3c-0.3-2-0.6-3.9-0.8-5.5c0.7-0.4,1.3-0.6,1.8-1c0.2-0.1,0.2-0.5,0.4-0.7
	c-0.3,0-0.7-0.1-0.9,0c-0.4,0.1-0.8,0.4-1.1,0.6c-0.1,0-0.2-0.1-0.3-0.1c0-0.9,0-1.8,0-2.8c-0.2-5.6,0.7-11,3.2-16
	c2.3-4.8,5.1-9.4,8.8-13.3c0.4-0.5,0.9-0.7,1.6-0.7c0.3,0,0.6-0.1,0.7-0.3c0.1-0.1-0.2-0.5-0.3-0.8c0.5-0.4,1-0.8,1.6-1.2
	c0.3-0.2,0.9,0.1,1.2-0.1c0.2-0.1,0.2-0.8,0.4-0.9c0.8-0.4,1.5-1.4,2.6-0.9c0.1,0,0.4-0.2,0.4-0.3c-0.1-1,0.9-1.1,1.4-1.2
	c0.8-0.1,1.6,0.2,2.4,0.4c0.3,0,0.5,0,0.8,0.1c-0.1-0.3-0.1-0.6-0.2-0.8c-0.2-0.2-0.5-0.3-0.9-0.5c0.9-0.3,1.7-0.7,2.6-0.8
	c0.6-0.1,1.2,0.3,1.8,0.4c0.3,0.1,0.6,0.2,0.9,0.3c-0.1-0.3-0.1-0.7-0.2-1c0-0.1-0.2-0.1-0.5-0.3C35.1,3.1,36.7,3,38.1,4
	c0.2,0.1,0.5,0,0.7,0c0-0.2,0-0.5-0.1-0.7C38.6,3.1,38.3,3,38,2.7c0.8-0.1,1.5-0.3,2.2-0.3c0.3,0,0.6,0.3,0.8,0.5
	c0.3,0.3,0.5,1,1.1,0.5c0.5-0.4-0.1-0.7-0.2-1c0,0,0-0.1-0.1-0.3c0.8,0.1,1.6,0.1,2.4,0.2c0.4,0.1,0.7,0.5,1,0.7
	c0.2,0.1,0.5,0.2,0.8,0.3c0-0.3,0-0.6,0-0.9c0-0.1-0.2-0.3-0.3-0.5c1.1,0,2-0.1,2.8,0.8C48.6,2.9,49,2.9,49.3,3
	c0.1-0.3,0.1-0.6,0.2-0.9c0.8-0.1,1.6,0.2,2.2,0.9c0.2,0.2,0.5,0.3,0.8,0.5c0.1-0.3,0.2-0.6,0.3-0.9c0.3,0,0.6,0,1,0.2
	C54,2.8,54.2,3,54.3,3.2c0.1,0.4-0.1,1,0.5,1c0.2,0,0.4-0.6,0.7-1.1c0.4,0.1,1,0.2,1.6,0.4c0.3,0.1,0.4,0.5,0.6,0.8
	c0.2,0.3,0.3,0.5,0.5,0.8c0.2-0.3,0.3-0.5,0.5-0.8c0-0.1,0-0.2,0.1-0.3c0.7,0.1,1.4,0.3,1.2,1.3c0,0.3,0.2,0.8,0.4,0.8
	c0.6,0.1,0.5-0.4,0.5-0.8c0-0.2,0-0.3,0.1-0.5c1.2,0.1,1.6,0.5,1.8,1.6c0,0.3,0.3,0.5,0.5,0.7c0.2-0.2,0.4-0.5,0.5-0.7
	c0.1-0.2,0-0.4,0-0.6c1.5,0.4,1.8,0.8,2,2.2c0,0.2,0.3,0.4,0.4,0.6c0.2-0.2,0.4-0.4,0.5-0.6c0.1-0.1,0-0.3,0.1-0.7
	c0.6,0.6,1.1,1,1.4,1.5C68.2,9,68,9.4,68,9.7c0,0.3,0,0.6,0,0.8c0.3-0.1,0.6-0.2,0.8-0.4c0.1-0.1,0.2-0.3,0.3-0.6
	c0.8,0.6,1.2,1.4,1.3,2.4c0,0.3,0.3,0.6,0.4,0.8c0.2-0.2,0.4-0.4,0.7-0.7c1,0.7,1.2,1.1,1,2.2c-0.1,0.3,0.1,0.6,0.2,0.9
	c0.2-0.2,0.5-0.4,0.7-0.6c0.1-0.1,0.1-0.2,0.2-0.4c0.3,0.3,0.5,0.6,0.8,0.9c0,0.6-0.8,1.2,0,1.7c0.1,0.1,0.5-0.3,1-0.6
	c1,1.6,2.1,3.2,3,5c3.6,7,5.5,14.4,5.1,22.3c-0.2,4.2-0.7,8.4-2.8,12.2c-0.8,1.5-1.9,2.9-3,4.2c-1.6,1.9-3.2,3.8-4.9,5.6
	c-0.3,0.4-0.8,0.6-1.2,0.9c-0.1,0.1-0.2,0.1-0.2,0.2c-0.7,1.2-0.7,1.2-2,1c-0.1,0-0.2,0-0.3,0c0-0.1,0-0.3,0-0.3
	c-0.1-0.2-0.3-0.4-0.4-0.7c-0.2,0.3-0.5,0.6-0.7,0.9c0.2,0.2,0.4,0.4,0.6,0.5c0.3,0.2,0.7,0.2,1.3,0.4c-0.5,0.4-0.9,0.7-1.3,1
	C67.9,69.2,67.4,68.9,66.9,68.5z M73.6,72.4c-0.2,0.1-0.5,0.2-0.6,0.4c-0.5,0.9-1.2,1.4-2.1,1.9c-0.3-0.3-0.5-0.6-0.8-0.9
	c0.5-0.4,1-0.8,1.5-1.2c0.3-0.3,0.7-0.7,0.9-1c0.1-0.2,0-0.6,0-0.9c-0.3,0.1-0.6,0.2-0.8,0.3c-0.7,0.6-1.4,1.3-2.2,1.8
	C69.4,73,69,73,68.7,73.2c1.6-1.5,3.1-2.9,4.6-4.4c1.4,2.6,3.6,3.9,6.3,4.6c1.1,0.3,2.2-0.1,3.2-0.5c0.7-0.2,1.3-0.4,2-0.6
	c0.1,0.1,0.2,0.2,0.3,0.2c-0.3,0.8-0.4,1.7-0.8,2.4c-1.4,2.6-3.5,4.6-5.8,6.3c-1.6,1.2-3.3,2.4-5.3,2.9c-0.2,0-0.3,0.1-0.6,0.1
	c0.1-1,0.1-1.8,0.2-2.7c0-0.2,0.3-0.5,0.5-0.7c0.9-0.8,1.8-1.6,2.7-2.5c0.2-0.2,0.1-0.6,0.1-0.9c-0.3,0.1-0.6,0.1-0.8,0.3
	c-0.7,0.7-1.5,1.4-2.3,2.2c-0.2-0.7-0.3-1.2-0.4-1.7c0.1,0.1,0.2,0.2,0.3,0.3c0.6-0.8,1.2-1.5,1.8-2.3c0.3-0.4,0.5-0.9,0.7-1.4
	c0.1-0.2-0.2-0.5-0.3-0.7c-0.2,0.2-0.5,0.3-0.6,0.5c-0.4,1.1-1.3,1.8-2.2,2.6c-0.3-0.6-0.6-1.1-0.8-1.6c0.7-0.6,1.3-1.1,1.9-1.7
	c0.2-0.2,0.4-0.5,0.5-0.8C73.9,72.9,73.7,72.6,73.6,72.4z M77.8,90.1c-0.6,0.3-1.2,0.5-1.7,0.7c-0.2-0.5-0.4-0.9-0.6-1.4
	c0.5-0.3,0.9-0.6,1.5-0.9C77.2,89.1,77.5,89.5,77.8,90.1z M77.5,88.2c0.4-0.3,0.8-0.5,1.2-0.8c0.3,0.6,0.5,1,0.8,1.5
	c-0.4,0.2-0.7,0.5-1.2,0.8C78.1,89.2,77.8,88.8,77.5,88.2z M79.1,95.2c-0.9-1.1-2.7-1.5-2.7-3.4c0.5-0.2,1.1-0.5,1.7-0.7
	c0.2,0.5,0.5,0.9,0.8,1.5c-0.4,0-0.7,0-0.9,0.1c-0.2,0.1-0.3,0.3-0.5,0.5c0.2,0.1,0.3,0.4,0.5,0.4c0.4,0,0.8,0,1.2-0.1
	c0.1,0.5,0.1,1,0.2,1.5C79.3,95.1,79.2,95.1,79.1,95.2z M80.2,89.8c0.3,0.4,0.6,0.9,0.9,1.4c-0.4,0.3-0.7,0.5-1,0.7
	c-0.2,0.1-0.3,0.2-0.5,0.3C78.2,90.8,78.6,90.6,80.2,89.8z M83,93.2c-0.3-0.5-0.5-0.9-0.8-1.4c0.4-0.3,0.7-0.5,1.1-0.8
	c0.3,0.5,0.5,0.9,0.8,1.4C83.7,92.6,83.4,92.9,83,93.2z M84.5,93.2c0.3,0.6,0.6,1.1,0.9,1.7c-0.5,0.3-0.9,0.6-1.4,0.8
	c-0.2-0.6-0.4-1.1-0.7-1.7C83.7,93.8,84.1,93.6,84.5,93.2z M81.7,90.9c-0.2-0.2-0.3-0.5-0.5-0.7c-0.2-0.2-0.3-0.5-0.5-0.7
	c0.4-0.3,0.8-0.6,1.2-1c0.3,0.5,0.5,1,0.8,1.6C82.4,90.4,82.1,90.6,81.7,90.9z M81.6,92.1c0.3,0.5,0.5,0.9,0.8,1.5
	c-0.8,0.4-1.5,0.8-2.3,1.3C79.6,93.2,79.6,93.1,81.6,92.1z M81,97c-0.2-0.4-0.4-0.8-0.6-1.1c0.8-0.4,1.6-0.8,2.4-1.3
	c0.2,0.5,0.4,0.9,0.6,1.6C82.6,96.4,81.8,96.7,81,97z M84.1,99.9c-0.7-0.7-1.5-1.3-2.3-2.1c0.7-0.3,1.2-0.5,1.8-0.7
	c0.1,0,0.2,0.1,0.3,0.1c-0.1,0.5-0.2,1-0.3,1.5c0,0.2,0.1,0.4,0.3,0.6c0.1,0.1,0.2,0.3,0.3,0.4C84.2,99.8,84.2,99.8,84.1,99.9z
	 M85.8,95.9c0.9,1.3,0.7,1.6-1.1,2.1C84.2,96.7,84.2,96.7,85.8,95.9z M87.8,103.2c-0.9-0.8-1.8-1.6-2.6-2.4c-0.6-0.6-0.3-1.6,0.5-2
	c0.4-0.2,0.7-0.4,1.2-0.6c0.1,0.4,0.2,0.7,0.3,1c0.2,0.4,0.1,0.7-0.3,0.8c-0.1,0.1-0.3,0.1-0.4,0.3c-0.1,0.2-0.2,0.4-0.3,0.6
	c0.2,0.1,0.5,0.2,0.7,0.2c0.2,0,0.4-0.2,0.7-0.3c0.2,0.8,0.3,1.5,0.4,2.3C87.9,103.1,87.8,103.1,87.8,103.2z M86.4,95.5
	c0.3-0.2,0.6-0.5,0.9-0.7c0.8,1.3,0.8,1.5-0.3,2.1C86.8,96.4,86.6,95.9,86.4,95.5z M87.8,99.5c-0.2-0.6-0.3-1.1-0.5-1.6
	c0.3-0.2,0.6-0.4,1-0.6c0.1,0.3,0.2,0.5,0.4,0.8c0.1,0.2,0.2,0.5,0.3,0.8C88.6,99,88.3,99.2,87.8,99.5z M89.4,99.7
	c0.2,0.6,0.5,1.2,0.7,1.9c-0.6,0.2-1.1,0.4-1.7,0.6C88.1,100.4,88.1,100.4,89.4,99.7z M89.9,99.3c0.3-0.2,0.7-0.5,1.1-0.7
	c0.3,0.7,0.5,1.3,0.8,2c-0.4,0.2-0.7,0.4-1.1,0.7C90.4,100.6,90.2,100,89.9,99.3z M88.5,103.1c0.6-0.2,1.2-0.4,1.9-0.6
	c0.1,0.5,0.2,1,0.3,1.3c-0.3,0.3-0.5,0.6-0.7,0.8c0.3,0.2,0.5,0.4,1,0.8c0,0.3,0.1,0.8,0.2,1.3C90.3,105.5,88.7,104.8,88.5,103.1z
	 M91,102.2c0.3-0.2,0.7-0.4,1-0.6c0.6,1.7,0.6,1.7-0.6,2.2C91.3,103.3,91.1,102.8,91,102.2z M92.9,104.3c0.2,0.7,0.4,1.3,0.6,2
	c-0.6,0.1-1.1,0.3-1.6,0.4C91.4,105,91.4,104.9,92.9,104.3z M93.9,110.8c-0.7-1-1.4-2.1-2.1-3.1c0.8-0.2,1.3-0.3,2-0.4
	c0.1,1.2,0.2,2.3,0.4,3.5C94.1,110.8,94,110.8,93.9,110.8z M94.5,103.1c0.1,0.3,0.3,0.6,0.4,0.9c0.1,0.3,0.2,0.7,0.4,1.1
	c-0.4,0.3-0.8,0.5-1.1,0.7C93.3,103.9,93.3,103.9,94.5,103.1z M95.7,106.1c0.3,0.6,0.5,1.2,0.8,1.9c-0.6,0.2-1.1,0.5-1.7,0.7
	C94.2,106.9,94.2,106.9,95.7,106.1z M97.2,114.9c-0.4,0-1-0.1-1.1-0.3c-0.5-0.8-1.1-1.6-1.3-2.4c-0.2-0.7,0-1.6,0.1-2.4
	c0.7-0.2,1.3-0.5,2-0.7c0.1,0.6,0.3,1.1,0.4,1.8c-0.6,0.1-1.1,0.2-1.6,0.3c-0.3,0.1-0.5,0.3-0.7,0.5c0.2,0.1,0.5,0.4,0.7,0.4
	c0.5,0,1.1-0.1,1.7-0.2c0.1,0.4,0.1,0.8,0.2,1.4c-0.4,0-0.7-0.1-1-0.1c-0.3,0-0.5,0.1-0.8,0.1c0.2,0.3,0.2,0.7,0.5,0.8
	c0.4,0.2,0.8,0.2,1.4,0.3C97.4,114.5,97.3,114.9,97.2,114.9z M99.2,107.5c0,0.1,0.1,0.1,0.1,0.2c0.1,0.6,0.3,1.2,0.4,1.8
	c-0.6,0.3-1.2,0.6-1.9,1C97.3,108.4,97.3,108.4,99.2,107.5z M99.8,110.6c0.5,2.2,0.5,1.9-1.5,2.4C97.7,111.6,97.8,111.4,99.8,110.6z
	 M98.1,114.8c0.2-1.3,1.4-0.8,2-1.4C100.4,114.9,100,115.1,98.1,114.8z M101,112.4c-0.7-1.5-0.6-2.2,0.6-2.8c0.1,0.7,0.3,1.3,0.2,2
	C101.8,111.8,101.3,112.1,101,112.4z M101.9,113c0.3,1.2,0.3,1.2-1,1.5C100.7,113.2,100.8,113.1,101.9,113z M100.9,116
	c0-0.1-0.1-0.2-0.1-0.3c0.4-0.2,0.9-0.3,1.4-0.5c0.1,0.2,0.1,0.4,0.2,0.7C101.9,115.9,101.4,116,100.9,116z M103.5,112
	c0.2,0.4,0.5,0.7,0.7,1.1c-0.5,0.3-1,0.5-1.4,0.8C102.5,112.8,102.5,112.8,103.5,112z M102.9,115c0.5-0.2,1-0.5,1.5-0.8
	c0.2,0.4,0.3,0.7,0.4,1C103.4,115.9,103.1,115.9,102.9,115z M105,118.1c-0.5-0.1-0.9-0.2-1.2-0.3c0-0.1,0-0.1,0-0.2
	c0.4-0.1,0.8-0.2,1.3-0.3C105,117.6,105,117.8,105,118.1z M105.7,113.3c0.3-0.2,0.6-0.4,0.7-0.7c0.1-0.2,0.1-0.5,0.1-0.8
	c-0.2,0-0.5,0-0.7,0.1c-0.3,0.2-0.6,0.5-1,0.8c-0.1-0.2-0.2-0.4-0.4-0.6c-0.1-0.2-0.3-0.3-0.5-0.4c0.4-0.5,0.9-0.8,1.2-1.3
	c0.1-0.2,0-0.6,0-0.9c-0.3,0.1-0.5,0.2-0.8,0.4c-0.6,0.5-1.2,1.1-1.8,1.7c-0.2-0.8-0.3-1.4-0.4-2c0-0.2,0.2-0.4,0.3-0.6
	c0.3-0.3,0.7-0.5,0.9-0.8c0.1-0.2,0-0.5,0-0.8c-0.2,0-0.5,0-0.7,0.2c-0.8,0.5-1.6,1-2.4,1.6c-0.2-0.6-0.3-1.2-0.4-1.8
	c0-0.2,0.2-0.5,0.3-0.7c0.3-0.3,0.6-0.5,0.9-0.9c0.1-0.2-0.1-0.5-0.1-0.7c-0.2,0.1-0.5,0.1-0.7,0.2c-0.3,0.2-0.5,0.5-0.7,0.6
	c-0.5-0.4-0.9-0.8-1.3-1.1c-0.1-0.1-0.3,0.1-0.6,0.1c0.5,0.5,0.8,0.9,1.3,1.4c-0.7,0.4-1.3,0.8-2,1.2c-0.3-0.7-0.5-1.3-0.8-1.9
	c0.6-0.4,1.2-0.8,1.8-1.2c0.3-0.2,0.6-0.6,0.7-1c0.1-0.1-0.1-0.4-0.2-0.6c-0.2,0.1-0.5,0.1-0.6,0.2c-0.6,0.5-1.2,1.1-2,1.8
	c-0.3-0.8-0.6-1.4-0.8-2c0-0.2,0.1-0.4,0.3-0.6c0.4-0.4,0.9-0.7,1.3-1.2c0.2-0.2,0.2-0.6,0.3-0.9c-0.3,0.1-0.6,0.1-0.9,0.3
	c-0.4,0.3-0.8,0.7-1.2,1.1c-0.1,0-0.1-0.1-0.2-0.1c-0.2-0.2-0.4-0.5-0.6-0.7c0,0.3-0.1,0.6,0,0.9c0.2,0.8-0.5,0.8-0.8,1.2
	c-0.7-1.1-0.7-1.5,0.2-2.2c0.6-0.6,1.3-1.1,1.9-1.7c0.2-0.2,0.5-0.5,0.6-0.8c0.1-0.2-0.1-0.5-0.1-0.8c-0.2,0.1-0.5,0.1-0.7,0.3
	c-0.9,0.8-1.8,1.7-2.8,2.6c-0.2-0.6-0.5-1.1-0.6-1.6c-0.1-0.2,0-0.6,0.2-0.7c0.4-0.5,0.9-0.9,1.3-1.3c0.2-0.2,0.4-0.4,0.5-0.7
	c0.1-0.2-0.1-0.5-0.2-0.7c-0.2,0.1-0.5,0.1-0.6,0.2c-0.5,0.5-0.9,1-1.4,1.4c-0.6,0.5-1.3,1-1.9,1.5c-0.1,0-0.1-0.1-0.1-0.1
	c-0.7-1.4-0.6-1.3,0.6-2.2c0.6-0.5,1.2-1.1,1.7-1.7c0.1-0.2-0.1-0.6-0.2-1c-0.2,0.2-0.5,0.4-0.7,0.6c-0.7,0.7-1.5,1.3-2.4,2.1
	c-0.3-0.7-0.5-1.1-0.6-1.6c0-0.2,0.1-0.5,0.2-0.6c0.4-0.4,0.8-0.7,1.2-1.2c0.1-0.2,0.1-0.5,0.1-0.8c-0.3,0-0.6,0-0.8,0.1
	c-0.3,0.2-0.4,0.5-0.7,0.7c-0.6,0.3-1.2,0.5-1.4,1.3c-0.1,0.2-0.4,0.3-0.7,0.5c-0.3-0.6-0.6-1.1-0.9-1.6c0.6-0.5,1.1-0.9,1.7-1.4
	c0.2-0.2,0.5-0.4,0.6-0.6c0.1-0.3,0.1-0.6,0.1-1c-0.3,0.1-0.6,0.2-0.8,0.3c-0.7,0.6-1.4,1.2-2.1,1.8c-0.3-0.5-0.6-1-0.8-1.4
	c0.7-0.6,1.3-1.1,1.9-1.8c0.2-0.2,0.1-0.6,0.2-0.8c-0.3,0-0.6,0-0.8,0.2c-0.6,0.5-1.2,1-1.7,1.5c-0.1-0.1-0.2-0.1-0.2-0.1
	c-0.8-1.4-0.8-1.4,0.4-2.5c0.3-0.2,0.6-0.5,0.8-0.8c0.1-0.2,0.2-0.5,0.2-0.8c-0.3,0.1-0.7,0-0.9,0.2c-0.4,0.3-0.7,0.7-1,0.9
	c-0.3,0.2-0.7,0.3-1,0.4c-0.1,0.1-0.3,0.1-0.3,0.2c-0.4,0.8-0.4,0.8-1.2,1.3c-0.2-0.3-0.3-0.7-0.5-1c-0.2-0.4-0.1-0.6,0.2-0.8
	c1.4-1.1,2.7-2.1,4-3.2c0.3-0.2,0.5-0.6,0.7-0.9c0.1-0.2-0.1-0.5-0.2-0.7c-0.2,0.1-0.4,0.1-0.6,0.3c-1.5,1.2-2.9,2.5-4.4,3.8
	c-0.5,0.4-1,0.7-1.6,1c-0.4,0.2-0.8,0.3-1.1,0.4c-0.5,0.4-1,0.8-1.5,1.2c-0.4-0.4-0.6-0.9-1-1.2c-0.2-0.2-0.5-0.2-0.8-0.2
	c0.1,0.2,0.2,0.4,0.3,0.6c0.2,0.2,0.4,0.5,0.6,0.8c-0.3,0-0.5,0-0.7,0.1c-0.1,0.1-0.3,0.3-0.3,0.4c0,0.1,0.2,0.3,0.3,0.4
	c0,0,0.1,0,0.2,0c1.4-0.2,1.6,0.8,1.7,1.8c0,0.2,0.2,0.5,0.4,0.8c-1.9-1.1-4.2-4.1-3.6-5.9c3.6-0.4,6.4-2.5,9.1-4.8
	c2.6-2.3,5-4.8,5.8-8.5c1.7,0.8,3,2,4,3.5c1.4,2,2.6,4,3.9,6c2.5,3.9,5.8,6.9,9.5,9.6c2.3,1.7,4.5,3.6,6.5,5.7
	c4.5,4.8,3.8,11.1-1.6,15.1c-1.1,0.8-2.4,1.5-3.5,2.2C104.8,114.1,104.8,114,105.7,113.3z M105.8,118c-0.3-0.8,0-1.2,0.9-1.3
	c0,0.4,0,0.8,0.1,1.3C106.4,118,106.2,118,105.8,118z M115.7,111.8c-0.1,0-0.2,0.1-0.2,0.1c-0.1-0.1-0.2-0.1-0.2-0.2
	c-0.2-0.1-0.4-0.1-0.6-0.2c0,0.2,0,0.4,0.1,0.6c0.2,0.4,0.7,0.8,0.2,1.2c-0.3-0.2-0.6-0.4-1-0.6c-0.1,0.1-0.1,0.1-0.2,0.2
	c0.3,0.6,0.8,1.3-0.1,2c-0.1-0.3-0.1-0.5-0.2-0.7c-0.1-0.2-0.3-0.2-0.5-0.4c0,0.2-0.1,0.4-0.1,0.6c0,0.5,0.5,1.2-0.3,1.6
	c-0.1-0.2-0.1-0.4-0.2-0.6c-0.1-0.2-0.3-0.3-0.4-0.5c-0.1,0.2-0.2,0.4-0.2,0.6c0,0.5,0.4,1-0.5,1.2c-0.1-0.3-0.1-0.6-0.2-0.9
	c-0.1-0.2-0.2-0.3-0.4-0.4c-0.1,0.2-0.2,0.3-0.2,0.5c0,0.3,0.1,0.5,0.1,0.8c0,0.2-0.2,0.3-0.3,0.5c-0.1-0.1-0.2-0.3-0.3-0.4
	c-0.1-0.3-0.2-0.7-0.3-1c-0.1,0-0.2,0.1-0.3,0.1c0,0.5,0,1,0,1.6c-0.2,0-0.4,0.1-0.7,0.2c0-0.3,0-0.6,0-0.9c0-0.2-0.2-0.3-0.3-0.4
	c-0.1,0.1-0.3,0.3-0.4,0.4c-0.1,0.4-0.1,0.7-0.2,1.1c-0.1,0-0.2,0-0.3,0c-0.1-0.5-0.1-1-0.2-1.5c3.5-1.7,6.2-4.2,7.8-8.1
	c0.3,0.8,0.4,1.3,0.6,1.9c-0.3,0.1-0.6,0.2-0.8,0.3C115.2,110.9,115.4,111.4,115.7,111.8z M76.8,42.2c0.6-5.3-0.2-10.4-2.4-15.3
	c-1.6-3.5-3.6-6.7-6.2-9.5c-5.5-6-12.4-8.8-20.4-9.3c-2.3-0.1-4.7,0.5-7,0.8c-3,0.4-6,0.8-8.5,2.4c-2.7,1.6-5.3,3.4-7.9,5.2
	c-0.7,0.5-1.2,1.3-1.8,1.9c-3,3-5.5,6.4-7.2,10.3c-1.4,3.4-1.8,6.9-1.9,10.6c0.2,2.2,0.4,4.4,0.7,6.5c0.5,3.3,1.3,6.5,3,9.3
	c3.2,5.3,7.9,9,13.4,11.7c5.6,2.8,11.6,3.5,17.8,3c1.7-0.1,3.3-0.5,4.9-0.8c2.7-0.5,5.5-1.2,7.7-2.8c3.1-2.2,6-4.7,8.5-7.6
	C73.7,53.8,76.1,48.4,76.8,42.2z M73.5,48.3c0.1-0.9-0.4-1.9,0.5-2.6c0.1,0,0.2,0.1,0.3,0.1C74,46.6,73.8,47.4,73.5,48.3z
	 M73.6,44.7c-0.3-2-0.2-2.2,1.4-2.9C74.7,42.9,75.1,44.3,73.6,44.7z M73.4,41.5c-0.6-1.7-0.3-2.3,1.6-3.1
	C75.5,40,74.8,40.9,73.4,41.5z M72.9,38.4c-0.1-0.4-0.2-0.8-0.2-1.3c0-0.2,0.1-0.4,0.2-0.5c0.6-0.4,1.2-0.8,1.8-1.2
	C75.4,36.9,75.1,37.4,72.9,38.4z M74.7,34.2c-0.8,0.5-1.5,1-2.3,1.5c-0.1-0.8-0.6-1.6-0.3-2.1c0.4-0.8,1.2-1.3,2-2.1
	C74.4,32.6,74.6,33.5,74.7,34.2z M73.8,30.7c-0.8,0.6-1.4,1.2-2.2,1.9c-0.8-2.3-0.5-3,1.5-3.7C73.4,29.5,73.6,30.1,73.8,30.7z
	 M72.7,27.7c-0.8,0.6-1.5,1.1-2.2,1.6c-0.3-0.7-0.6-1.3-0.9-2c0-0.1,0-0.3,0.1-0.4c0.6-0.6,1.1-1.1,1.8-1.7
	C71.9,26.1,72.3,26.9,72.7,27.7z M70.9,24.2c-0.6,0.7-1.2,1.3-1.8,2.1c-0.6-1-1.1-1.9-1.7-2.9c0.7-0.5,1.3-0.9,2.1-1.5
	C70,22.8,70.5,23.5,70.9,24.2z M67.4,19.2c0.5,0.7,1,1.3,1.5,1.9c-0.7,0.5-1.4,1-2.1,1.4c-0.4-0.5-0.9-1.1-1.4-1.7
	C66,20.3,66.6,19.8,67.4,19.2z M66.7,18.5c-0.4,0.4-0.7,0.6-1.1,0.9c-0.3,0.3-0.7,0.5-1,0.8c-0.4-0.4-0.8-0.8-1.3-1.2
	c0.7-0.6,1.4-1.2,2-1.7C65.8,17.6,66.2,18,66.7,18.5z M64.7,16.5c-0.7,0.6-1.4,1.2-2.1,1.8c-0.8-0.6-1.6-1.2-2.5-1.9
	c0.7-0.6,1.4-1.1,2.2-1.7C63,15.1,63.8,15.8,64.7,16.5z M61.4,14c-0.4,0.4-0.8,0.6-1.1,0.9c-0.3,0.3-0.6,0.6-0.9,0.9
	c-0.4-0.2-0.8-0.5-1.3-0.8c0.5-0.7,0.9-1.3,1.5-2C60.1,13.3,60.6,13.6,61.4,14z M57.1,12.3c0.3-0.2,0.9,0.1,1.6,0.2
	c-0.6,0.8-1,1.4-1.5,2.1c-0.5-0.3-1-0.5-1.5-0.8C56.2,13.2,56.6,12.6,57.1,12.3z M56.2,11.7c-0.5,0.6-1,1.1-1.5,1.7
	c-0.8-0.3-1.5-0.6-2.3-0.9C53.9,10.5,53.3,10.8,56.2,11.7z M52.5,10.6c-1.5,1.9-0.7,1.7-3.3,1C49.9,10,50.6,9.8,52.5,10.6z M48.9,10
	c-0.7,2.3-2.4,1.2-3.8,1.3C45.8,9.9,46.5,9.6,48.9,10z M44.4,10.2c-0.5,1.1-0.7,1.2-2.2,0.9C42.7,10.2,43.6,10.3,44.4,10.2z
	 M41.2,10.7c-0.8,0.9-1.6,0.3-2.3,0.6c0-0.1,0-0.1,0-0.2C39.5,11,40.3,10.9,41.2,10.7z M65.3,60.2c-0.9,1-2,1.8-3.1,2.7
	c-0.4,0.4-0.8,0.6-1.4,0.2c-0.2-0.1-0.6,0-0.8,0c0.1,0.3,0.2,0.6,0.3,0.8c0,0.1,0.2,0.2,0.3,0.3c0,0.1,0,0.2,0,0.2
	c-0.7,0.1-1.5,0.3-2.2,0.3c-0.4,0-0.8-0.5-1,0.1c-0.1,0.2,0.2,0.6,0.4,1c-0.8,0.7-1.7,0.1-2.6-0.1c-0.2-0.1-0.4-0.3-0.7-0.3
	c-0.2,0-0.4,0.1-0.6,0.2c0.1,0.2,0.1,0.5,0.2,0.6c0.3,0.2,0.6,0.4,0.9,0.6c-0.7,0.3-2.8,0.2-3.3-0.2c-0.2-0.1-0.2-0.4-0.3-0.5
	c-0.1-0.2-0.4-0.3-0.5-0.4c-0.1,0.2-0.4,0.5-0.4,0.6c0.1,0.4,0.4,0.9,0.6,1.3c-1,0.5-1.7,0.4-2.5-0.5c-0.2-0.2-0.6-0.3-0.9-0.4
	c0.1,0.4,0.1,0.7,0.2,1.1c0,0.1,0.1,0.2,0.2,0.3C48,67.9,48,68,48,68c-0.3-0.1-0.7-0.3-1-0.5c-0.1-0.1-0.1-0.3-0.2-0.3
	c-0.3-0.2-0.8-0.5-1-0.4c-0.5,0.3,0,0.6,0.2,0.9c0,0,0,0.1,0,0.1c-1,0.3-1.2,0.2-1.5-0.4c-0.2-0.3-0.5-0.4-0.7-0.7
	c-0.2,0.3-0.3,0.6-0.5,1c-1.1,0.1-1.1,0.1-1.8-1.2c-0.1-0.1-0.3-0.3-0.4-0.3c-0.2,0-0.4,0.2-0.4,0.4c-0.1,0.2,0,0.5,0,0.7
	c-0.6,0.2-1-0.1-1.3-0.6c-0.1-0.3-0.3-0.7-0.6-0.9c-0.2-0.2-0.6-0.1-0.8-0.2c0,0.3,0,0.5,0.1,0.8c0.1,0.2,0.2,0.4,0.4,0.6
	c-0.9,0.1-1.4-0.3-1.6-1.3c-0.1-0.4,0.1-0.9-0.5-0.8c-0.6,0.1-0.5,0.6-0.4,1.1c0,0.2,0.1,0.4,0.1,0.7c-0.8-0.1-0.9-0.6-1-1.2
	c-0.1-0.4-0.1-0.8-0.2-1.2c-0.1-0.2-0.4-0.2-0.7-0.3c-0.1,0.2-0.2,0.5-0.2,0.7c0,0.5,0.2,0.9,0.3,1.4c-1.3-0.2-1.8-0.7-1.8-1.9
	c0-0.4,0-0.7,0-1.1c-0.1-0.2-0.3-0.4-0.5-0.7c-0.2,0.2-0.4,0.4-0.5,0.6c-0.1,0.6,0,1.2,0,1.8c-0.9-0.1-1.1-0.7-1.2-1.4
	c0-0.2,0-0.4,0-0.7c-0.1-0.4,0.3-1.2-0.5-1.2c-0.7,0-0.4,0.7-0.5,1.2c0,0.3,0,0.5,0,0.9c-0.9-0.3-1.5-0.8-1.3-1.8
	c0.1-0.5,0-0.9,0-1.4c0-0.2-0.3-0.4-0.4-0.5c-0.2,0.2-0.5,0.3-0.5,0.5c-0.1,0.5,0,1,0,1.6c-1.6-0.8-1.7-1-1.3-2.5
	c0.1-0.2-0.1-0.5-0.1-0.7c-0.2,0.1-0.6,0.2-0.7,0.3c-0.2,0.3-0.3,0.6-0.4,1c-1.2-0.7-1.3-0.9-0.9-2.2c0-0.2,0.2-0.3,0.1-0.5
	c0-0.2-0.1-0.5-0.3-0.6c-0.1-0.1-0.5,0.1-0.6,0.2c-0.2,0.3-0.3,0.7-0.4,1.2c-0.8-0.5-1.1-1.2-0.9-2.1c0.1-0.4,0.3-0.9,0.4-1.3
	c0-0.2-0.2-0.5-0.2-0.7c-0.2,0.1-0.5,0.2-0.6,0.4c-0.2,0.5-0.3,1-0.5,1.5c-1.3-1-1.4-1.6-0.8-3.1c0.2-0.4,0.4-0.8,0.4-1.2
	c0-0.2-0.2-0.5-0.4-0.8c-0.2,0.2-0.4,0.4-0.5,0.6c-0.2,0.5-0.4,1-0.7,1.7c-0.7-1.1-1.2-2.1-0.4-3.3c0.3-0.4,0.4-0.9,0.5-1.3
	c0-0.3-0.3-0.6-0.4-0.8c-0.2,0.2-0.4,0.4-0.5,0.7c-0.2,0.4-0.3,0.7-0.4,1.2c-0.7-1.3-0.6-1.7,0-2.5c0.2-0.3,0.4-0.9,0.2-1.1
	c-0.5-0.5-0.6,0.2-0.9,0.4c0,0-0.1,0.1-0.2,0.1c-0.1-1.1-0.9-2.1,0.1-3.1c0.1-0.1,0.2-0.5,0.1-0.7c-0.2-0.2-0.5-0.2-0.8-0.3
	c0-0.7-0.4-1.5,0.5-2.3c0.5-0.5-0.2-0.7-0.6-0.8c0-0.6,0-1.2,0-1.8c0-0.6,0.3-0.9,0.7-1.2c0.3-0.2,0.4-0.6,0.7-0.9
	c-0.3-0.1-0.7-0.1-1.1-0.2c-0.1-1.4,0-1.7,1.3-2.4c0,0,0.1,0,0.1-0.1c0.2-0.3,0.7-0.8,0.6-1c-0.3-0.7-0.7-0.1-1,0.1
	c-0.2,0.1-0.3,0.1-0.6,0.3c0.3-1.3,0.6-2.6,2.1-3c0.3-0.1,0.7-0.6,0.7-0.8c-0.2-0.6-0.7-0.2-1-0.1c-0.1,0-0.2,0.1-0.4,0.2
	c0.5-0.9,0.6-1.8,1.6-2.1c0.4-0.1,0.8-0.3,1.1-0.6c0.2-0.2,0.3-0.6,0.5-1c-0.3,0-0.7,0-1-0.1c0.3-0.5,0.6-1.1,1.5-1.3
	c1.1-0.3,1.3-0.8,0.6-1.4c0.6-1,1.5-1.4,2.6-1.7c0.2-0.1,0.5-0.3,0.7-0.4c-0.2-0.2-0.3-0.4-0.5-0.7c1.6-2,3.8-3.2,6.3-4.1
	c0.5-0.2,1-0.3,1.5-0.5c2.6-1.2,5.4-1.6,8.3-1.6c2.9,0,5.9-0.1,8.8,0.6c7,1.7,12.8,5.4,16.8,11.5C69,29.4,70.4,34.1,71,39
	c0.3,2.5,0.5,5,0.5,7.5c0,3.1-0.8,6.1-2.6,8.7C67.8,57,66.6,58.7,65.3,60.2z M7.3,39.9c0.1,0.1,0.2,0.3,0.1,0.4
	c-0.3,0.6-0.7,1.1-1.1,1.7c0,0.1-0.1,0.1-0.4,0.1c-0.1-0.2-0.4-0.6-0.3-0.7c0.3-0.6,0.7-1.1,1.2-1.6C6.8,39.7,7.1,39.8,7.3,39.9z
	 M7.4,36.5c0.1,0.1,0.2,0.4,0.2,0.5c-0.3,0.5-0.7,1-1.1,1.5c0,0.1-0.1,0.1-0.4,0.1c-0.1-0.2-0.3-0.6-0.2-0.7c0.3-0.5,0.7-1,1-1.4
	C7,36.4,7.3,36.4,7.4,36.5z M7.7,32.8c0.1,0.1,0.3,0.4,0.3,0.5c-0.4,0.5-0.9,1-1.4,1.6C6.3,34.6,6,34.5,6,34.4c0-0.1,0-0.4,0.1-0.5
	c0.3-0.4,0.7-0.7,1-1C7.3,32.7,7.6,32.7,7.7,32.8z M7.8,47.3c-0.1,0.3-0.2,0.6-0.3,0.9c-0.3,0.1-0.6,0.3-0.9,0.3
	c-0.2,0-0.5-0.1-0.6-0.2c-0.1-0.2,0.1-0.5,0.2-0.6c0.1-0.2,0.4-0.3,0.6-0.3C7.1,47.3,7.5,47.3,7.8,47.3z M7.6,48.2
	C7.6,48.2,7.6,48.2,7.6,48.2C7.6,48.2,7.6,48.2,7.6,48.2L7.6,48.2C7.6,48.2,7.6,48.2,7.6,48.2C7.6,48.2,7.6,48.2,7.6,48.2z
	 M8.7,29.9c0,0.2,0.1,0.5,0,0.6c-0.4,0.3-0.8,0.5-1.3,0.7C7.3,31.1,7,30.9,7,30.8c0.1-0.3,0.3-0.7,0.6-0.9
	C7.9,29.8,8.3,29.9,8.7,29.9z M77,57.2c0.2-0.1,0.4-0.4,0.5-0.3c0.4,0.1,0.7,0.4,1,0.6c0,0.1,0,0.2-0.1,0.3
	c-0.2,0.1-0.5,0.3-0.6,0.3C77.5,57.8,77.3,57.5,77,57.2z M11.1,24.4c-0.4,0.3-0.7,0.6-1,0.7c-0.1,0-0.4-0.3-0.6-0.5
	c0.3-0.3,0.5-0.5,0.9-0.7C10.5,23.8,10.7,24.1,11.1,24.4z M80.6,50.2c-0.2,0-0.4-0.3-0.6-0.5c0.2-0.2,0.5-0.5,0.7-0.6
	c0.1-0.1,0.4,0.2,0.8,0.4C81.1,49.9,80.8,50.2,80.6,50.2z M81.9,43.4c0.2,0.2,0.4,0.4,0.6,0.8c-0.3,0.3-0.5,0.5-0.7,0.7
	c-0.2-0.2-0.5-0.5-0.5-0.7C81.4,43.9,81.7,43.6,81.9,43.4z M80.1,53.3c-0.3-0.3-0.5-0.5-0.7-0.7c0.2-0.2,0.5-0.5,0.7-0.5
	c0.3,0,0.5,0.3,0.8,0.5C80.7,52.8,80.5,53,80.1,53.3z M14.4,16.6c0.2-0.3,0.5-0.5,0.8-0.7c0.1,0,0.3,0.2,0.6,0.5
	c-0.4,0.3-0.7,0.6-1,0.8C14.8,17.2,14.4,16.7,14.4,16.6z M12.9,20.6c-0.2,0.3-0.4,0.5-0.8,0.8c-0.2-0.3-0.5-0.6-0.5-0.6
	c0.2-0.3,0.5-0.5,0.8-0.7C12.5,20.1,12.9,20.5,12.9,20.6z M9,27.2c0.2,0.3,0.5,0.6,0.5,0.6c-0.2,0.3-0.5,0.5-0.8,0.7
	c-0.1,0-0.5-0.4-0.5-0.4C8.4,27.8,8.6,27.5,9,27.2z M81.5,46.4c0.3,0.4,0.6,0.6,0.5,0.8c-0.1,0.2-0.4,0.5-0.6,0.5
	c-0.2,0-0.4-0.3-0.7-0.4C81,47,81.2,46.8,81.5,46.4z M79,55.7c-0.2,0-0.4-0.3-0.6-0.4c0.2-0.2,0.4-0.4,0.7-0.8
	c0.3,0.4,0.6,0.6,0.5,0.8C79.5,55.4,79.2,55.7,79,55.7z M75.7,60c0.2,0,0.4,0.2,0.7,0.4c0,0.1,0,0.2,0,0.3c-0.2,0.1-0.5,0.3-0.7,0.3
	c-0.2,0-0.4-0.3-0.6-0.5C75.3,60.3,75.5,60,75.7,60z M80.8,32.8c0.2-0.1,0.3-0.4,0.5-0.4c0.3,0,0.5,0.3,0.9,0.5
	c-0.4,0.3-0.7,0.6-0.7,0.6C81.2,33.3,81,33,80.8,32.8z M71.7,65.5c-0.1,0.3-0.3,0.5-0.5,0.9c-0.3-0.3-0.6-0.6-0.6-0.7
	c0.1-0.2,0.4-0.5,0.6-0.6C71.3,65,71.7,65.4,71.7,65.5z M81.8,37.3c0.2,0.2,0.4,0.3,0.7,0.7c-0.4,0.3-0.6,0.4-0.8,0.6
	c-0.1-0.2-0.4-0.4-0.4-0.7C81.4,37.7,81.7,37.5,81.8,37.3z M82.2,40.9c0.2,0.2,0.4,0.4,0.7,0.6c-0.3,0.3-0.5,0.5-0.7,0.7
	c-0.2-0.2-0.4-0.4-0.4-0.7C81.7,41.3,82,41.1,82.2,40.9z M80,29c0-0.2,0.3-0.5,0.5-0.5c0.2,0,0.5,0.2,0.6,0.4c0,0.1-0.3,0.4-0.5,0.7
	C80.3,29.3,80,29.1,80,29z M75.2,18.7c0-0.2,0.3-0.5,0.4-0.5c0.1,0,0.4,0.2,0.7,0.5c-0.3,0.3-0.5,0.6-0.7,0.5
	C75.5,19.2,75.3,18.9,75.2,18.7z M10.8,51.7c0.2,0.3,0.4,0.5,0.3,0.6c-0.1,0.3-0.3,0.6-0.5,0.9c-0.1-0.1-0.3-0.3-0.3-0.4
	C10.4,52.5,10.6,52.2,10.8,51.7z M21.8,67.5c0.2-0.4,0.3-0.7,0.5-1.1c0.6,0.2,0.5,0.5,0.3,0.9C22.3,67.7,22.1,67.8,21.8,67.5z
	 M21.8,67.5C21.8,67.5,21.7,67.5,21.8,67.5C21.7,67.5,21.7,67.5,21.8,67.5L21.8,67.5C21.7,67.5,21.8,67.5,21.8,67.5
	C21.8,67.5,21.8,67.5,21.8,67.5z M13.4,56.2c0.2,0.3,0.4,0.5,0.3,0.6c0,0.2-0.2,0.5-0.3,0.7c-0.1-0.1-0.4-0.2-0.3-0.3
	C13.1,56.9,13.2,56.6,13.4,56.2z M109.6,109.5c-0.5,0.6-1,1.1-1.5,1.6c-0.1,0.1-0.5,0.1-0.7,0.1c0-0.2-0.1-0.5,0-0.7
	c0.6-0.8,1.2-1.5,1.8-2.3c0.1-0.1,0.4-0.1,0.5,0c0.1,0.1,0.2,0.3,0.3,0.5C109.9,108.9,109.8,109.2,109.6,109.5z M107.4,107.6
	c-0.4,0.6-0.9,1.2-1.3,1.8c-0.1,0-0.3-0.1-0.4-0.1c-0.1-0.3-0.3-0.6-0.2-0.8c0.3-0.5,0.8-0.9,1.2-1.3
	C106.9,107.2,107.2,107.5,107.4,107.6z M84.9,81.5c-0.1-0.1-0.2-0.3-0.1-0.4c0.3-0.5,0.6-1,1-1.5c0.1-0.1,0.3-0.1,0.5,0
	c0.1,0,0.2,0.2,0.4,0.4c-0.4,0.5-0.8,1.1-1.2,1.6C85.3,81.7,85,81.6,84.9,81.5z M85.2,85.5c-0.1,0-0.3-0.1-0.3-0.2
	c0-0.2,0-0.4,0.1-0.6c0.2-0.3,0.5-0.7,0.7-1c0.1-0.1,0.3-0.2,0.5-0.2c0.1,0,0.3,0.2,0.4,0.4C86.8,84.4,85.8,85.5,85.2,85.5z
	 M88.1,86.6c0,0.5-0.9,1.6-1.3,1.5c-0.5-0.1-0.6-0.4-0.3-0.8c0.2-0.4,0.6-0.7,0.9-1c0.1-0.1,0.3-0.1,0.4-0.1
	C87.9,86.3,88,86.5,88.1,86.6z M105.4,105.5c-0.3,0.5-0.7,1-1.1,1.5c-0.3-0.2-0.5-0.2-0.6-0.4c-0.1-0.1-0.1-0.4,0-0.5
	c0.3-0.4,0.6-0.7,1-1c0.1-0.1,0.3-0.1,0.4-0.1C105.2,105.2,105.4,105.4,105.4,105.5z M110,107.2c0.3-0.4,0.7-0.8,1-1.2
	c0,0,0.3,0.3,0.6,0.5c-0.5,0.4-0.8,0.8-1.2,1.1C110.4,107.6,109.9,107.2,110,107.2z M87,79.9c-0.3-0.3-0.6-0.6-0.6-0.7
	c0.3-0.4,0.6-0.8,0.9-1.2c0.2,0.2,0.5,0.4,0.5,0.5C87.6,78.9,87.4,79.3,87,79.9z M102.8,103.6c-0.2,0.3-0.5,0.6-0.8,1
	c-0.3-0.4-0.5-0.6-0.7-0.8c0.4-0.2,0.7-0.5,1.1-0.7C102.5,103.1,102.9,103.5,102.8,103.6z M87.5,81.9c0.2,0.3,0.5,0.6,0.5,0.6
	c-0.3,0.3-0.6,0.6-1,0.8c-0.1,0-0.4-0.3-0.6-0.4C86.7,82.6,87.1,82.3,87.5,81.9z M89.1,88.1c0.2,0.3,0.5,0.6,0.4,0.7
	c-0.3,0.3-0.6,0.6-0.9,0.9c-0.2-0.2-0.5-0.4-0.5-0.5C88.4,88.8,88.7,88.5,89.1,88.1z M89.6,80.9c-0.1,0.3-0.4,0.5-0.6,0.9
	c-0.3-0.3-0.5-0.5-0.6-0.7c0.3-0.2,0.5-0.5,0.8-0.6C89.3,80.5,89.7,80.8,89.6,80.9z M100.3,101.6c0,0.1,0,0.2,0,0.3
	c-0.3,0.2-0.5,0.4-0.8,0.4c-0.2,0-0.4-0.3-0.6-0.4c0.2-0.2,0.5-0.5,0.8-0.6C99.8,101.3,100.1,101.5,100.3,101.6z M76.6,76.8
	c0.2-0.3,0.4-0.6,0.7-0.9c0.2,0.2,0.4,0.3,0.7,0.6c-0.4,0.3-0.7,0.6-1,0.8C77,77.3,76.6,76.9,76.6,76.8z M35,21.9
	c-1.4-1-2.9-1.1-4.6-0.8c-1.9,0.4-3,1.8-4.1,3.2c-3.6,4.4-5.1,9.5-5.1,15.1c0,2.9,0.4,5.6,1.7,8.2c0.8,1.5,1.8,2.8,3.5,3.3
	c1.3,0.4,2-0.2,2.1-1.5c0.2-3.3,0.3-6.6,0.7-9.9c0.6-4.5,2.1-8.6,5.2-12.1c0.7-0.7,1.2-1.7,1.6-2.6C36.4,23.5,36,22.6,35,21.9z
	 M34.9,24.5c-0.4,0.8-0.8,1.6-1.4,2.2c-3,3.4-4.6,7.4-5.3,11.7c-0.4,2.7-0.5,5.4-0.7,8.2c-0.1,0.9-0.1,1.8-0.1,2.7
	c0,0.6-0.4,0.9-0.8,0.6c-0.8-0.4-1.6-0.9-2.1-1.6c-1.4-1.7-1.9-3.8-2.2-5.8c-0.2-1-0.2-2.1-0.2-2.7c0.1-5.8,1.6-10.8,5.1-15.1
	c0.5-0.6,1.1-1.2,1.7-1.8c1.3-1.2,4.1-1.3,5.5-0.3C35.1,23.1,35.3,23.7,34.9,24.5z M65.8,36.9c-0.7-0.5-1.2-0.2-1.2,0.6
	c0,0.6,0,1.2,0,1.7c0.3,5.9-0.8,11.3-4.8,15.8c-2.3,2.5-4.7,5-8.3,5.5c-0.1,0-0.2,0-0.3,0.1c-0.1,0.1-0.2,0.3-0.3,0.5
	c0.2,0.1,0.3,0.2,0.5,0.2c0.4,0,0.9,0,1.6-0.1c2.9,0,5.6-1.1,8.1-2.8c1.8-1.2,3.4-2.7,4.5-4.6c1.6-2.8,2.5-5.8,2.8-8.9
	c0.2-2.4-0.1-4.7-1.3-6.9C66.7,37.7,66.3,37.2,65.8,36.9z M67.3,47.2c-0.7,3.6-2.1,7-4.9,9.5c-2,1.8-4.3,3.1-7,3.8
	c-0.3,0.1-0.6,0.1-1.1,0.2c1.3-1,2.6-1.8,3.7-2.8c4.4-3.8,6.8-8.7,7.2-14.5c0.1-1.5,0-3.1,0-4.6c0-0.4,0-0.9,0.1-1.3
	c0.1,0,0.2-0.1,0.3-0.1c0.3,0.4,0.7,0.8,0.9,1.3C67.8,41.4,67.8,44.2,67.3,47.2z M46.1,16c0,0.1-0.2,0.4-0.4,0.5
	c-0.6,0.3-1.3,0.6-1.9,0.9c-0.2,0.1-0.5,0-0.8,0c0.1-0.2,0-0.6,0.2-0.7c0.7-0.5,1.5-0.9,2.3-1.3C45.7,15.6,46,15.8,46.1,16z
	 M48.4,16.4c0.2,0,0.5,0.2,0.8,0.3c-0.2,0.2-0.3,0.5-0.5,0.6c-0.6,0.3-1.2,0.4-1.9,0.7c-0.2-0.2-0.4-0.3-0.6-0.5
	c0.2-0.2,0.3-0.4,0.6-0.5C47.2,16.8,47.8,16.5,48.4,16.4z M41.2,16.3C41,16.5,41,16.8,40.8,17c-0.2,0.2-0.6,0.4-0.9,0.6
	c-0.2,0.1-0.4,0.2-0.6,0.4c-0.2-0.1-0.4-0.2-0.4-0.3c-0.1-0.2,0-0.4,0-0.5c0.4-0.4,0.9-0.7,1.4-1C40.6,16,40.9,16.2,41.2,16.3z
	 M53.2,19.1c0.1-0.7,0.7-0.4,1.1-0.4c0.2,0,0.5-0.1,0.7,0c0.2,0.1,0.4,0.3,0.6,0.5c-0.2,0.2-0.4,0.4-0.6,0.5c-0.2,0.1-0.4,0-0.7,0
	c0,0.1-0.1,0.1-0.1,0.2C53.9,19.6,53.2,19.3,53.2,19.1z M50.3,18.3c-0.3-0.2-1-0.4-0.9-0.6c0-0.7,0.7-0.5,1.2-0.5
	c0.4,0,1.2-0.3,1.2,0.4C51.8,18.6,50.9,18.1,50.3,18.3z M56.6,20.6c0.3-0.2,0.6-0.4,0.9-0.5c0.4,0,0.9-0.2,1.1,0.4
	c0,0.1-0.2,0.4-0.4,0.5c-0.1,0.1-0.4,0-0.6,0c-0.2,0-0.4,0.1-0.6,0C56.8,21,56.7,20.8,56.6,20.6z M62.3,24.5c-0.4-0.3-0.7-0.6-1-0.9
	c0.2-0.1,0.5-0.5,0.5-0.4c0.4,0.2,0.7,0.5,1.3,0.9C62.7,24.3,62.4,24.5,62.3,24.5z M60.3,22.6c-0.4-0.2-0.8-0.5-1.1-0.7
	c0.1-0.2,0.3-0.5,0.4-0.4c0.5,0.1,0.9,0.3,1.3,0.5c0,0.1,0,0.2,0,0.3C60.7,22.4,60.5,22.7,60.3,22.6z M33.9,18.9
	c-0.3-0.3-0.4-0.5-0.6-0.7c0.4-0.3,0.7-0.5,1.1-0.7c0.1,0,0.3,0.3,0.5,0.4C34.6,18.2,34.3,18.5,33.9,18.9z M37,16.7
	c0.1,0,0.3,0.3,0.5,0.4c-0.3,0.3-0.5,0.6-0.9,0.9c-0.2-0.3-0.5-0.6-0.5-0.6C36.4,17.2,36.7,16.9,37,16.7z M62.8,26.2
	c0.1-0.2,0.3-0.5,0.4-0.4c0.2,0,0.5,0.3,0.9,0.5c-0.3,0.2-0.6,0.5-0.7,0.4C63.2,26.6,63,26.4,62.8,26.2z"/>
</svg>
