<svg xmlns="http://www.w3.org/2000/svg" viewBox="0 0 120 120" fill="#fee700"><path d="M58.2 4c.4-.9 1.1-1.3 2.3-1.2 7.6.5 14.7 4.5 19.7 7.7-6.3-3.1-13.3-8.1-22-6.5zm5.1 24.9c-.1-.9-1.2-.4-1.9-.3-.5-.4-1-1.2-1.7-.5-.3-.1-.2-.6-.8-.5-.1.5.1.7.3.9.4 0 1.1.1 1.3-.1.1.9 1.7.7 2.3.4 0 .2 0 .4.1.5.8.1 1.3-.2 1.6-.7-.4-.4-.9.2-1.2.3zm5.4.9c.5-.4 1.4-.4 1.5-1.2-.8 0-.9.6-1.6.7-.5-.5-1.5-.4-2 0-.7-.1-1.1-.5-1.7-.7.2 2 2.6.6 3.8 1.2zM37.8 54.1c0 .2.1.3.1.4.5 1.1 1.3 2.2 2.1 3 1.4 1.5 2.9 3.1 4.8 4.2.2-.5-.3-1-.5-1.5-.1.5.6.8.1 1.1-2.1-2.4-4.7-4.3-6.2-7.3-.1.1-.2.1-.4.1zm10.1 7.3c-.3-.7-.9-.3-1.5-.5-1.6-.7-2.5-2.5-3.6-3.8-.2 0-.2-.2-.4-.1 1.1 2.1 2.7 3.9 5.5 4.4zm11 5.9v-.5c-.5-.1-.5.6 0 .5zm19.8 2.3c-.3-.1-.7.4-.8.1.6-.8 1.9-1.1 2.3-2.1-.4 0-.9-.1-.9.3.3.2.5-.3.5 0-.8.9-2.4 1.1-2.7 2.5.6-.2 1.3-.3 1.6-.8zm-9.8 31.2h-.5c.2.1.4.1.5 0zm26.3-58.7c-.4 2.3-1.5 4.4-2.4 6.5C91 53 88.5 56.1 85.9 60c-2.2 3.4-3.7 6.8-4.1 11.9-.3 3.4.1 7-1.1 9.5-.5 1.1-1.3 1.7-2.1 3 .1 1-.2 1.9-.4 2.9-.2.9-.1 2.1-.4 2.9-.2.7-.9 1.1-.9 1.7 0 .9.8 1.2 1.1 2-.1 1.6-1.1 2.3-1.2 3.8.2.6.7.9.9 1.5-.4 1.1-1.6 2-1.2 3.4.2 1 1.3.8 1.5 1.9-.2.8-1.3 1.3-1.5 2.3-.1 1 .9 1.8.9 2.7.1 2.5-3 2.7-5.4 3.6-.9 1.9-1.9 3.7-4.5 4-.3 3.6-8.4 3.8-9.3.5 2.3 1.3 5.4.4 7.8-.3-5.5 0-12.5.3-13.5-4.6-1.5-.6-3.7-1.1-5-2.4-.6-.6-1.4-2-1.3-2.8.1-1 1-.8.8-2.3-.1-.9-1.4-1.7-1.3-2.5.1-.7.7-.9 1.2-1.3-.3-.7.1-1-.1-1.6-.4-1-1.5-1.3-1.5-2.1 0-.7.8-1.1 1.7-1.3-.1-1.3-1.6-1.7-1.6-2.8 0-1 1.1-1.2 1.2-1.9.3-1.5-2.8-3.2-2-6.1-1.7-2-3.4-4-4-7.4-.4-2.8-.7-5.8-1.3-8.7-.7-2.8-1.1-5.8-2.4-8-.7-1.3-1.9-2.3-2.8-3.4-.9-1.2-5.4-7.5-7.3-11.3-.3-.6-1.2-3-1.3-3.6-2-6.6-1.4-15.2 1.2-21.7.5-1.4 1.6-2.9 2.4-4.2C34.7 8.1 43.8 1.2 57.3.1c10.7-.9 18.1 2.3 24.4 7 4.3 3.2 7.8 7.8 10.2 12.5.4.8 2.2 4.8 2.7 6.6 1.1 5.1 1.5 10.6.6 15.9zM47 103.8c-.5-.1-.2-.9-.8-.9.1.3.4 1.2.8.9zM64.3 1.1c1.9.2 3.2.7 4.5.7-1.3-.4-3-1-4.5-.7zm-38 33.2c-.1 1.4 0 2.8.4 4 .3-1.2.3-3.2-.4-4zm3.6 13.9c-.7-2.4-2-4.9-2.5-7.3.8 3.1 1.1 5.6 2.4 7.6.5.8-.1-.7.1-.3zm1.2 3c-.5-.6-.5-1.6-1.1-2.1.1.8.6 2 1.1 2.1zm3.4 4.1c-.5-.1-.9-1.6-.9-1.3.1.5.4 1.6.9 1.3zM36 60c-.2-.5-.5-1-.9-1.3 0 .5.8 1.2.9 1.3zm4.6 13.4c-.4-3.5-.4-7.3-2.1-9.4.9 3 1.4 6.3 2.1 9.4zm7.6 15.9c-.8-.3-1.5-1.4-2.3-1.3.6.5 1.6 1.3 2.3 1.3zm-2.3-2.6c.3.6 1.1 1.5 1.7 1.5-.5-.6-.9-1.3-1.7-1.5zm1.9.4c0-.4-.8-.8-1.1-.5.5 0 .7.4 1.1.5zm2.4 5.8c-.8-.3-1.5-1.8-2.3-1.3.8.3 1.5 1.4 2.3 1.3zm-3-1.2c.1.8 1.2 1.3 1.7 1.2-.5-.4-1.1-.8-1.7-1.2zm-.1 15.5c-.1.3-.4.2-.3.7.5 0 .8-.6.3-.7zm2.5-2.1c.5.2 1.2.1 1.9.3.3.1.5.4.8.5 3.8 1 10.8 2 13.9.9 1.3-.5 2.6-.4 3.6-1.1-1.6.2-4.1.5-6 .1 1.3.1 2.1-.2 3.3-.1.4-.5.6-1.1.9-1.6-.9.2-1.3 1.5-2.3 1.2 0-.5.6-1.2.4-1.5-.5.5-1.2 1.3-1.9 1.1-.1-.9.8-1 .8-1.9-2.9 0-5.9.2-8.5-.3-2.7-.5-5-1.4-7.3-1.6.3.4.8.6 1.2.9.1.4-.5.1-.5.4.3.1.4.5.4.9 2.9 1.3 6.7 1.7 10.2 2.4-4.1-.5-10.8-.6-13.3-4-.5 1.7 1.3 2.9 2.4 3.4zm2.8-4.2c-1.1-.6-2.7-1.4-4-1.5 1.1.8 2.6 1 4 1.5zm-4.6-.4c.3 1 1.2 1.9 2 1.6-.9-.4-1.1-1.4-2-1.6zm1.3-3.1c-.5-.1-.8-1.1-1.3-.8.3.3.8 1.1 1.3.8zm-1.6 0c-.1.3-.3.3-.3.7.5 0 .7.3 1.3.4-.2-.5-.6-.8-1-1.1zm24.3 10.3c-1.2.4-2 1.8-2.4 2.5.9-.6 1.8-1.4 2.4-2.5zm-1.8 2.6c0 .3-.5.2-.5.5.3 0 .5 0 .7-.1 0-.2 0-.4-.2-.4zm.2-2.4c-1.3.2-1.7 1.3-2.4 2.1 1-.5 2-1 2.4-2.1zm-1.9 2.4c-.2.5-.9.4-1.2.8h1.1c0-.3.7-.9.1-.8zm-2.1-.6c.8-.4 1.8-.6 2-1.6-1.1.2-1.5 1-2 1.6zm.3-1.4c-1.1-.2-1.9.6-1.9 1.2.6-.5 1.4-.7 1.9-1.2zm6.3-4.3c-.3.4-.7.7-1.3.8v-.4c-.5.1-.8.4-1.1.8 1-.2 2.5-.4 2.4-1.2zm-.4-1.7c-1 .4-2 1.5-2.1 2.4.7-.6 2.4-1.7 2.1-2.4zm-2 .4c-.7.3-1.6 1.3-2.1 2.3 1.1-.3 2-1.5 2.1-2.3zm-1.7.3c-1-.2-1.7.7-1.7 1.3.5-.5 1.4-.6 1.7-1.3zm-19.2 4.1c.1.4.4 1.2.8.8-.5-.1-.5-.6-.8-.8zm.5-.3c-.3-.4-.4-.9-.9-1.1-.2.3.7 1.3.9 1.1zm5.7 7.8c-.2-.5-.4-1-.9-1.2.1.6.4 1.1.9 1.2zm6.5 1.2c-1.2 0-1.9-.2-3.2-.5.7-.2 1.4.4 1.6-.1-.5-.2-1.3-.1-1.6-.5.6.2 1.8.4 2.3.3-.3-.7-1.6-.8-2.5-.9-.9-.2-2-.1-2.9-.4.7 1.8 4.5 2.9 6.3 2.1zm11.2-5.3c-2.8.7-6.6 1.7-9.8.8 1.2.1 2.3-.1 3.4-.1-.1-.6.1-.9.1-1.3-.9.1-1.3 1.3-2.3.9.2-.5.4-1 .7-1.3-.8.1-1.2 1.3-2.1.8-.1-.8 1.3-1.5.8-1.9-4.5.5-8.4-.9-11.7-1.3.5.5 1.6 1.1 1.6 1.6-1.1-.6-1.8-1.6-2.9-2.1.9 3.5 5.1 3.8 8.6 4.6-2.1-.2-3.9-.6-5.7-1.1 0 .3.2.3.3.4-2.5-.5-4.5-1.5-6.5-2.5-.3 1.8 2.6 2.8 4 3.3 2.1.8 5.9 1.4 8.2 1.6 5.3.5 10.9.2 13.3-2.4zm-20.9-1.2c-.5-.9-1.2-1.6-2-2.3.5 1 1 1.9 2 2.3zm22.4-2.6c-1.3.6-2.3 1.7-2.8 3.2 1.7-.3 3.2-1.4 2.8-3.2zm.8-5.6c-1.2.6-2.5 1-2.9 2.3.8-.1 1.2-1.4 2-1.2-.2 1-1.4 1.7-1.5 2.4.6-.5 1.6-.6 2.1-1.1-.1-.9.6-1.8.3-2.4zm-1.6 4.7c.8-.2 1.9-.2 1.9-1.2-.7.3-1.7.3-1.9 1.2zm1 4.1c-.6 0-1 .8-.7 1.2.2-.5.5-.8.7-1.2zm.9-.3c-.4-.1-.6.7-.4.7.1-.3.5-.2.4-.7zm.1-10.5c-2.2.9-4.4 1.7-7.2 1.7.4-.2.5-.6.4-.8-.4.4-.8.8-1.5.9-.3-.2 0-.5 0-.8-.6.1-.9 1-1.7.5 0-.5.8-1 .5-1.3-.5.7-1.2 1.1-2.1 1.3v-.7c-.5 0-1 .7-1.3.4-.1-.8.6-.8.7-1.5-3.9 0-10-.3-13.6-1.3.5.3-.2.5-.1.8 3.5 2.6 9.6 2.5 13.4 2.9-3.6.1-6.6-.3-9.1-.5 3.6 1.4 8.4 1.5 13 1.2 2.1-.2 4.5-1 6.1-1.2 1.4 0 2.8.2 2.5-1.6zm-23.7-2.4c-.8-.1-1.4-.2-1.7.4.3.6 1.4.4 2.1.7-.1-.4-.3-.7-.4-1.1zm.7.6c1.2.5 2.9.6 4.6.5.6 0-.1-.2-.4-.1-1.5.1-3.1-.5-4.6-.8 0 .3.1.4.4.4zm13.5 1.8c-.6-.1-.7.2-.9.5.4 0 .8-.1.9-.5zm.9.8c.2-.3.7-.3.8-.8-.6-.2-1.1.5-.8.8zm2.7-1c-.8 0-1 .5-1.3.9.5-.2 1-.5 1.3-.9zm1.6-.3c-.9 0-1 .8-1.5 1.3.6-.3 1.3-.5 1.5-1.3zm1.9-.4c-1.2-.2-1.6 1-1.6 1.6 1.3-.5 1.7-1.9 2.7-2.8 0 .3.4.2.3.5-.4.6-1 1-1.2 1.9.7 0 1.2-.4 1.7-.7.1-.7-.3-1.1 0-1.6-.2 0-.5 0-.5-.1-.1-.4.7-.5.3-.8-.4.4-.6 1-1.5.9-.1.5.4-.1.4.4-.6.2-.9.3-.6.7zm3.1-4.2c-.9-.4-1.9.3-2.9.5-1 .3-2.2.6-3.4.8-2.6.4-5.4.3-8.2.4-2.5.1-5.8.6-7.6-1.1 3.6 1 8.5.4 12.1-.1-.1-.6.3-.6.4-1.1-.6.1-.9.6-1.6.7-.1-.7-.7 0-1.1-.3-.2-.4.6-.6 0-.7-5 .8-10.1-.5-14.3-.8.4.5.9.4 1.3.5.1.8-.6.1-.5.9.4.5 1.5.3 1.7.7-2.1.1-4.1-.5-5.7-.7.7.8 2 1.3 3.2 1.6 4.5 1.1 9.4 1.6 14 1.3 3.1-.2 6.6-.5 9.8-1.2 1.1-.1 2.8-.2 2.8-1.4zm-7.4-1.1c-.9-.1-1.4.2-1.6.8.6-.2 1.2-.4 1.6-.8zm3.3-.4c-.8 0-.9.7-1.3 1.1.8 0 .9-.6 1.3-1.1zm3.3-.8c-.6.4-1.4.5-1.7 1.2.8-.1 2.1-.4 1.7-1.2zm1.1-4.1c-1.2.7-1.9 1.9-2.9 2.8-.3 0-.1-.5-.4-.5-.4.4-1.1.5-1.2-.1-.6.3-.9 1-1.9.9-.1-.5.2-.6.3-.9-.8.2-1.1 1-2 1.1-.2-.7.6-1 .3-1.3-.6.5-1.4 1.4-2.3 1.2 0-.6.9-.9.7-1.3-.7.5-1.4 1.7-2.4 1.5-.1-1.1 1.7-1.6 1.2-2.4-.7.8-1.5 2.1-2.7 2-.1-.8 1.2-1 .9-1.6-5.7 0-11.7-.9-16-1.9.2.7-.5.8-1.1.8 1 .5 1.4 1.1 1.3 2.4 5.3 1.5 17.3 2.7 23.7.9 2.4-.6 5.1-1 4.5-3.6zm-25-2.3c-.3-.2-.4-.5-1.1-.4 0 .3-.1.3-.1.5 1 .1 2 .2 2.9.4.1-.2.2-1.4-.3-1.5 0 .4-.4.5-.5.8-.1-.4-.5.2-.9.2zm1.6-2.3c-.4 0-.6.4-.8.7.4-.2.9-.2.8-.7zm1.4-1.6c-.3 1.3-.7 3.1-.5 4.5 3.3.2 7.8 1 10.9 0 .2-4.8.2-10.7-.3-15.6-.4-.3-1.1-.8-1.5-.7-1.6 1.2-1.3 2.9-1.2 5 .2 3.6 0 6.7-.1 9.5-.2.1-.6.1-.7.3.5-.1.8.1.8.7-.7.3-2.1.6-2.5.4.3-.5 1.3-.2 1.6-.7-.7-.4-1.6-.1-2.6-.5.3-1.1-.5-1.2-.4-2.3.8-.8.7-3.9.3-5.6-.4 2.5 0 6-.9 7.6-.4-3.8-.5-9.8-.5-14-.4 0-.6-.4-1.2-.3-2.1 2.4-1.3 7.9-1.2 11.7zm.1-15.9c-.4.3 0 .9 0 1.3 1.2.7 3.6 1.1 4.8.9-.4-.6.3-1.1.4-1.6-2-.2-4.3.6-4.9-.9 1.6.3 4.8.4 7 .1 1.3-1.3 3.3-1.9 2.9-4.8-.2-.2-.5-.4-.7-.7-.4 1.2-2.1 1-2.5 2.3.2.4.9.8.5 1.3-.9-.3-1.1-1.3-1.7-2-1.3-.4-2 .7-2.5 1.7.1.7.1 1.7-.5 2-1.4.2-1.9-1-2.8-.9-.4-.7-.3-1.8-.8-2.4-.7 1.4-.2 3 .8 3.7zm1.1-5.7h-.4c-.6 1.3-.9 3.6.5 4.4.2-.8.7-1.4.9-2.1-.6.1-.5.9-1.3.9-.1-.7.2-1 .5-1.3-.5-.6 0-1.3-.2-1.9zm7.1-.2c-.1 1-1.3 1-1.5 1.9 1-.3 1.6-1 2.5-1.3-.2-.6-.9-.8-1.5-1.1-.2.4-1.2.8-1.1 1.2.7-.2 1.1-.9 1.6-.7zm-1-.9c-.7.5-1.8 1.3-1.7 2.1.4-.8 1.7-1.3 1.7-2.1zm-.7-.3c-.3.1-.3-.2-.7-.1-.4 1.5-2.4 1.9-2.1 3.3.8-1.2 1.9-2.1 2.8-3.2zm-1.1-.2c-1.8.3-2.5 1.9-3.4 3 1.3-.8 2.4-1.9 3.4-3zm-3.3 6.2c.3-.1.3.2.7.1.1-.7-.6-.5-.7-.1zm10.1 21.3h.5c-.1-.2.3-1.2-.3-1.5 0 .6-.3.9-.2 1.5zm.1-3.8c.2-.8.2-2.4 0-3.2-.1 1.1 0 2.8 0 3.2zm-.6 7.6c.6-.4 1.3-.7 1.7-1.2-.3.1-.6.2-1.1.1 0 .4-.8.9-.6 1.1zm1.7-3.9c.4-.3-.1-.9-.3-1.1.1.4-.2 1.2.3 1.1zm4.6.1c1-.3 2.2-.4 2.9-1.1-1 .3-2.5.7-2.9 1.1zm1.3-1.7c-.3 0-.4-.1-.4-.4-.4 0-.7 0-.7.4.5-.1.9.4 1.1 0zm-2.6 5.6c1.5-.7 2.9-2.2 3.6-3.3-1.4.9-2.7 1.9-3.6 3.3zm.8-2.3c-1.3.3-2.1 1.2-2.7 2.3.7-.1 1.1-.6 1.7-.8 0-.8 1.6-1.1 1-1.5zm-2.1.7c-1 0-1.8 1-1.9 1.5.6-.6 1.5-.8 1.9-1.5zm1.2-2.8c-.4-.5-1.8-.9-2.8-.7.2.2.3.6.3 1.1.9 0 1.5-.4 2.5-.4zm-2.6-1.3c0-.4-.4-.4-.8-.4 0 .4.6.2.8.4zm-2.5-.7c-.1 1-.4 1.8-.7 2.5.4.1.3 0 .8 0 0-.8.2-1.9-.1-2.5zM65.9 70c.4 5.3-.1 9.1-.3 14.4.4-4 1.6-10.3.3-14.4zm-.2-2.3c-.4-.1-.3.2-.7.1-.1.6.9.3.7-.1zm-.8.9c0 .2-.1.3-.1.4.2.2.5.2.7 0-.1-.3-.3-.4-.6-.4zm-1.1 18.7c-1.1.1 1.7.4 2.1-.1-.9.1-1.5.1-2.1.1zm2.9-27c0 1.5-.5 4-1.6 5.2 1.8-.5 3.6-3.8 1.6-5.2zm-3.4 8.5c0-.2 0-.3-.3-.3-.8.7-3.3.1-4 .5 1.1 2.4 1 7 1.2 11 0 .8-.2 2.2.9 2 .3-.4.1-1.3.4-1.7.1.4-.3 1.2.3 1.2 1-4.3-1.6-10.5 1.5-12.7zm-1.5 14c0 .2-.4.8.1.8.3 0 .3-1-.1-.8zm-1.4-14.9h.7c-.1-.2-.1-.7-.1-.7s-.6.3-.6.7zm.2-.8c.3-.3.8-.5.9-.9-.2 0-.7.2-.7.2s-.4.4-.2.7zm1.6.2c.3-.4.5-1 .8-1.3-.8-.1-.9.6-1.2 1.1.3-.1.3.1.4.2zm-4.5 3.3c.2 3.1.1 4.8.3 7.3.2-2.2.3-5.8-.3-7.3zm19.8 14.7c-1.5.7-2.1 2.3-3 3.6 1-.4 1.8-1.8 2.9-1.7-.2-.2 0-1.4.1-1.9zm11.4-31.1c-.4.3-.7.7-.9 1.2.5-.2.5-.8.9-1.2zm-.7-.9c-.1 0-.3 0-.3.1-1 .8-1.8 1.7-2.7 2.7 1.3-.7 2.2-1.7 3-2.8zm5.5-25.4c-.3-1.6-.9-3.9-1.5-5.5-1-2.6-1.1-3.3-2.4-5.1-1.6-2.3-2.2-4.4-6.6-8.2-6.4-5.7-9.8-6-13.6-6.8 0 .1 0 .3-.1.3-5-1.8-14.2-2.1-18.9-.3-10.9 3.3-17.9 10.3-22.3 20.1-1.1 2.5-2 5.1-1.6 7.7-.4.3-.8 1.5 0 1.5.2-2.7 1.1-4.8 2-6.8-1.3 3.2-2.3 7.6-.9 11.1.5-5.9 2-10.9 4.1-15.2-.7 2-1.8 4.3-2 6.4 1.4-4.2 3.5-8.4 6-11.1-4.2 5.7-8.6 15.5-7.7 25.3.3 2.9 1.3 4.7 2.1 6.9.9 2.2 1.4 4.6 3 6.2-.9-3.5-3.1-6.4-3.6-9.9C32 48.6 33.1 54 36.5 57c.2-.3-.4-.6 0-.7.4.9.9 1.7 2 1.9-1.3-2-3.4-3.8-3.7-6.4 1.5 3 4 6.8 6.2 7.7.1-.2.1-.3.3-.4-.1.9.3 1.3.8 1.6-.7.4-1.6-.5-2.1-.3.7.4 1.6.7 2.3 1.2-2.3-.6-3.9-1.9-5.8-2.9.5 1.2 1.7 1.6 2.5 2.4-.5-.2-1-.5-1.5-.8 1 2.3 2.7 4.4 3.3 7.4 1.1 5.2.1 11.3 2.7 14.7 1.5 1.2 4.8 3.1 7 2.6-2.8-.9-5.6-2.5-6.8-4.5 1.5 1.3 3 2.8 5.2 3.4 0-.5-1.2-.6-.9-.9 1 .5 2 1 3.4 1.1.9-.6 1.4-1.4 2.5-1.7-.2-2.1.3-4.2.1-6.2-.2-3.3-1.9-6.1 1.5-7.3 0-.5.2-.7.1-1.3-.9.1-1.3-.9-1.1-2-2.9-.8-2.2-6.7.5-7.2-3.2-7.8-6.2-15.7-10.2-22.7-.7-.4-1.1-1.1-1.2-2-.3-.3-.6-.7-.5-1.5.3-.2.3 0 .7 0-.1-1-.7-1.5-1.1-2.5.3-.1.2-.6.4-.8-.4-.4-.2.3-.7.3-.2-.6-1.8-1-.9-1.9 1.4.4 2.4.5 3.7 1.3.3 0 .5-.4 1.2-.4.5.1.6.6 1.1.8 0-.5.3-.7.8-.7.7.1.3 1.3 1.2 1.2.3-.5.3-1.8 1.6-1.7.5 0 .5.5.8.8.5 0 .3-.7.9-.5 1.5.2 2.6.1 4.1-.1.1-.5.3-.8.4-1.3.5 0 .7-.3 1.2-.3.2.8-.2 1.1-.4 1.6.4 0 .3.5.4.8.1.5-.5.2-.4.7.3 4.1.8 7.9 1 11.7 0-.2-.5-1.2-.7-1.3 0 1.2.1 2.3.4 3.2.9-.2 2.1.5 3.2 0-.9-.7-2.5-.1-2.9-1.5 1.8.5 5.1-.5 5.3 1.7-3.6 3.2-1.2 8.1-2.3 13.4-.7-.7-.5.7-1.2.3 0-.7.4-1.1.5-1.7-.3-.2-.7-.4-.8-.8.3-.5.7-1 .9-1.6-.4 0-.8 0-.9-.3.1-.5.8-.9.5-1.3.2.4-.7.5-.8.3.2-1.2 1.3-1.6 1.5-2.8-.8-.4-.8 1-1.2 1.3-.3.2-.6-.8-.5.1-.3 2.2-.3 3.7-.4 6.4-.6-.2-.2.6-.8.4.1-3 .3-6.7.1-9.7 0-.7.4-2.3-.5-2.7-.3.4.3 1.5-.1 2.3-.5-.7 0-2.4-.5-3.2-.2 4.6.3 8.4 0 12.2-.8-.5-.3-1.6-.3-2.4 0-2.8-.4-6-.3-8.6-.4-.6-1-.9-1.3-1.6.1-.9.9-1.1 1.3-1.7-.1-4.5.2-10.4 0-13.6-.9.3-2.4 1.5-3.2.4 0 .7-.9.6-1.3.4-.2.4-.4.8-.8 1.1-.6.1-.5-.6-1.1-.7-.8.1-.8 1-1.6 1.1-.6 0-.7-.6-1.3-.9-.5.9-1.5 0-2-.3-.6.7-1.7-.4-2.5-.3-.1 1 .7 2.1.4 3.3 4.2 8.3 8.3 16.8 11.7 26 .7-.1 1.2.1 1.3.7-.1.5-1 .4-.5 1.1.6.2.7-.7.8-1.2 1.3-.4 2-1.6 3.4-1.5.3.3.6.6 1.2.7.3 0 .1-.4.4-.4.7.6 1.6 1.6 2.3 1.7-.4-.5-1.2-.7-1.5-1.3.7-.2.4-.7 1.1-.8 1.4-.3 2.7 1.5 3.3 2.3.6-1 1.1-2.8 2.1-2.9-.3 1.4-2.4 2.1-1.7 3.7 4.2-1.4 6-5.8 9.3-7.7-2.9 2.7-5.1 6.2-9 8 .8 2.5-1 4.3-1.2 6.6-.5.1-.7.5-.8 1.1 1 .8 2.6 2 2.5 3.4-.4 3.5-.2 7.5-.2 11.3 1.8.1 2.9.9 4.8 1.1.5-.2.6-.9 1.2-.9.1.2 0 .9.5.5.4-.4-.2-.1-.3-.4.4-.1.6-.3.9-.4.1-.5-.4-.4-.3-.9.6-.9 1.8-1.2 2.5-2-.9-.3-1.4.8-1.9.1.4-.7 1.2-1 1.7-1.6-.8-.1-1 .9-1.7.4.8-1 1.9-2 2.8-2.5-.1.9-1.4 1.2-1.3 1.9.4-.2 1-.4 1.1.1-.3.5-1 .7-1.3 1.3.5.1 1.3-.2 1.2.4-.8.7-1.8 1.2-2.5 2 .7.7 1.5-.8 2 0-.5.5-1.6 1-1.6 1.6 1.7-.2 1.7-2.2 2.5-3.3.5.6 0 1.4 0 1.7 2.1-2.3 2.1-6.8 2.4-9.7.3-3 .8-5.8 1.7-8.3 1.1-2.9 3.1-4.9 4.1-7.3-.3.1-.6.9-.8.7.5-.5.9-1.2 1.3-1.9-3.5 2.9-6.2 6.5-7.6 11.5-.9.1-1.3.6-1.7 1.2.4.1.8-.5.9-.3-.4.3-1.2 1.2-1.6.5.1-.9.9-1 1.3-1.6-.4 0-1 .1-1.1-.3.4-.7 1.2-1 1.7-1.6-.9-.1-1.7 1.2-2.4.4.6-.9 1.8-1.3 2.5-2.1-.7 0-1.2.9-1.9.4 0-.8 1.5-1.2 2-2-1.1.1-1.7 1.4-2.7 1.2 1.1-1.1 3.3-1.7 3.4-3.3 1.5-.8 3-1.6 3.8-3-1.5.9-2.8 2.1-4.4 2.9 0-.3.4-.3.5-.5-.4-.1-.7.6-.9.3 6.9-4.8 13.6-10.4 14.3-20.8.7-4.2.9-7.3.2-10.5zm-8.7 29c-.2.4-1.3.6-.9 1.1.3-.4 1.1-.8.9-1.1zm-2.2 1.7c-.7.2-1.3.6-2 .9.4.8-.4 1.1-.7 1.6.4.4.6-.4.9 0-.3 1-2 1.2-2.1 2 2.4-.4 2.7-2.9 3.9-4.5zm-2.4 4.6c-.6.7-1.6.9-2.1 1.7.6-.2 1.3-.4 2-.5 0-.3.6-1.2.1-1.2zm-1.7 3.2c.6-.3 1.4-.4 1.5-1.2-.6.3-1.6.8-1.5 1.2zm-17-14.6c0 .2-.5.5-.1.7.2-.2.6-.5.1-.7zm0 2c-.2.4-.4.7-.5 1.1.7.3.8-.8.5-1.1zm.1-3c0-.2 0-.5-.1-.5-.1.3-.8.6-.4.9 0-.3.3-.3.5-.4zm.2-3c0-.4 0-.7-.3-.8-.2.7-1.2 1-.9 1.7.6 0 .6-.8 1.2-.9zm-.4-1.9c-.5.7-2.1 1.6-1.3 2.7.1-1.2 1.6-1.6 1.3-2.7zm-1.4 3.8c.1-.3.3-.5.4-.8-.4 0-.3.2-.5 0 .1.2-.2.8.1.8zm-.2-3c.5.1.4-.5.4-.9-.3 0-.3.1-.5.1-.1.3.2.3.1.8zm1.4-2.8c-.4.6-1 .9-1.3 1.5.8.3 1.8-1.1 1.3-1.5zm-.9 0c-.7.1-1.6-.3-2.1.3.2.3 1-.3 1.1.3.4-.2.7-.4 1-.6zM40 59.5c-.8-.8-2.2-1.6-3.2-1.7.7.8 2.1 1.6 3.2 1.7zM62.8 4.9c5.7-.5 10.4 2.8 14.2 4.6-3.8-2.4-7.7-4.6-13.4-5.2-.2.4-.6.4-.8.6zm-7.6 4c.3-1.5 2.8-4.6 1.3-4.1-1.9.6-3 2.8-4.4 3.6.4-1 2.3-3.4 1.2-2.9-.8.2-1.5.9-2 1.5-1.7 1.9-3.1 4.3-4.8 6.2.4-1.9 2.2-3.4 2.3-4.9-.6 1.9-2.6 3.2-2.5 5.4 1.3-1 2.1-2.9 3.2-4.2 1.1-1.4 2.2-2.8 3.6-3.6-.8 2.1-2.4 3.5-3.2 5.6.5.1.7-.4 1.2-1.3 1.7-1.6 3-3.7 5.2-4.9-.2 1.6-1.6 2.7-1.3 4.2 1.9-.9 2.8-2.7 4.8-3.4-2.2.2-3 1.9-4.6 2.8zm21.9.9c.8.8 2.4 1.4 2.7 2.3-3.3-1.4-6.7-3.3-10.5-4.4-2.1-.6-3.6-1.2-5.8-1.7-.5-.1-1.5-.6-1.7 0C68.3 7.6 74 10 78 14.1c-5.2-2.6-10.5-5.8-17.4-6.4 7.6 1.3 14.1 4.7 19.7 8.1-1.4-1.4-3.1-2.8-4.8-4.1-1.7-1.3-3.7-2.3-5.2-3.4 5.4 1.9 10.4 4.4 14.2 8.1 3.2 3.2 4 8.4 4.2 14.3-1.6-7.7-3.9-14.5-9.7-18 5.5 4.5 9.8 12 8.7 23.1.5-1.5.2-3.7.5-5.3 1 1.7.8 4.5.4 6.7 1.6-5.5 0-13.3-1.6-17.5 2.8 4 4.1 10.5 3.4 17.1 2.2-14.1-5.3-22.3-13.3-27zM49.9 6.4c-2.7 1.4-4.3 4.7-6.1 6.5.4-1 2.9-4.9 1.5-4.3-2.1.9-3.5 4.7-4.9 5.8.3-1 2-4 .7-3-2.4 1.1-3.2 3.9-4.6 6.1.3-1.8 1.6-3.2 1.9-4.6-1.5 2.5-2.6 5.4-3.6 8.5-1 3.1-2.2 6.4-1.9 9.8.8-5.9 2.6-11.7 5-15.8.8-1.4 1.6-3.1 3-3.6-.2 1.2-.7 2.5-1.2 3.6s-1.4 2.2-1.2 3.2c1.3-2.3 2.7-5 4.2-6.9.5-.7.9-1.7 1.9-1.7-.4 1.9-1.7 3.4-1.7 5.2 2-3.3 4.3-6.8 7-8.8zm30.5 4.5c1 .4 2.3 2 2.7 2.1-.8-.8-1.8-2-2.7-2.1zm-41.2.6c-.3.2-.9.9-.7 1.2.3-.3.5-.8.7-1.2zm45.7 9.4c-1.9-4-4.4-7.4-7.8-8.6 5.1 3 7.8 8.2 9.9 14.2-.3-2.4-1.3-3.7-2.1-5.6zm-47.7-7.1c-.3.6-1.3 1.3-1.2 1.9.3-.6 1.3-1.8 1.2-1.9zm-5.1 6.4c.3-.7.6-1.4.9-2-.6.1-.8 1.5-.9 2zm43.5 7.9c-.6-.7-1.4.3-2.1.5-.5.1-.3-.5-.9-.4-.4.4-.8.7-1.3.9-.4-.1-.4-.6-.9-.5-.1.6.3.6.4.9 1.6 0 3.3-1.3 4.6-.7-.2.8-1.1 1.6-.7 2.7-.1-.3.3-.6.4-.3-.3 1.7-.8 3.1-1.6 4.2-.2 0-.1-.2-.3-.3-2.2 7-4.8 13.9-7.6 20.7.2.1.5.2.8.3 2.8-8.7 6.6-17.1 9.7-25.2-.9-1.1.3-2.1.5-3.3-.4-.2-1 0-1 .5zM74 33.3c-.2.5-.8 1.3-.5 1.9.1-.6.7-2 .5-1.9zm5.4 23.4c1.9-2.3 4.3-4.8 5.2-7.7-1.9 4.1-5.1 6.8-7.7 10.2 6.3-4.6 11.9-10.7 13.4-19.6-1.9 7.4-5.8 13.3-10.9 17.1zm5.3-10.3c-1.3 2.2-2.4 4.6-4 6.6-1.5 2-3.4 4-5.7 4.8 1.5-4.2 5-6.4 7.2-9.9-3.2 2.8-5.4 6.7-8.5 9.7-.4.4-1.1.4-1.2 1.2 1.1-.5 1.8-2 2.7-2.3-.4.3-.6.8-.5 1.6.2 1.7 7.8-5 10-11.7zM46.1 77.9c.5.1 1.1.8 1.7.4-.4-1.1-2.1-1.8-2.4-2.7.5.3 1.3.8 1.9.5-.2-1.1-1.6-1.6-1.6-2.4.5.1 1 .3 1.3-.1-.6-2-2.7-3.1-3.3-4.5.6.2 1 .7 1.9.8.1-1.2-1.2-1.9-1.6-3 .4.2 1.1.8 1.7.4-.5-1.7-2.1-2.4-2.7-4-.2.1-.3-.2-.4 0 .7 1 1.8 2.4 2.1 3.4-1.4-.5-1.8-1.8-3-2.4.8 1.6 2.4 3.1 2.9 4.6-1.1-.2-1.8-1.5-2.7-1.5 1.1 2.1 3.6 3.7 4.2 5.8-1.8-.4-2.5-1.8-3.8-2.7.4 1.8 3.3 2.8 3.7 4.6-1.3-.5-2.3-1.3-3.3-2.1.9 1.6 3.1 2.6 3.6 4.2-1.1-.5-2.3-1.6-3.2-1.9 1.3 1.8 3.8 3.1 4.8 4.8-1.6-.4-2.5-1.5-4.2-1.7 1.5 1.2 3.3 2.1 5.6 2.5-.2-1.1-2.8-1.9-3.2-3zm30.4-5.7c.6.4 1-.4 1.7-.4-.5.9-2 1.3-1.9 2.4.3 0 .3-.1.5-.1-.3-1.2 1.5-1.3 1.6-2.5-.8-.1-.8.5-1.6.4.5-.7 2-1.2 2-2.1-.5.9-1.9 1.1-2.3 2.3zm2.2 1c-.4.1-.3.2-.5.3-.1.8-2 1.1-2 2.4.7.4 1.2-.9 1.9-.5-.7.4-2.3 1.2-1.7 2 .3-.3 1.1-.1 1.2-.7-.4-.1-.7.5-.9.1.7-.7 1.8-1 2.1-2-.9.1-1.1.4-2 .7.2-1.1 1.9-1.4 1.9-2.3zM46.1 81c-.9-.2-1.4-.9-2.3-1.2 1.4 1.5 3.9 2.7 5.8 3.2-1.1-1-2.8-2-4.1-2.6.3.1.4.4.6.6z"/></svg>